<?xml version="1.0" encoding="utf-8"?>
<!-- Generator: Adobe Illustrator 28.1.0, SVG Export Plug-In . SVG Version: 6.00 Build 0)  -->
<svg version="1.1" id="Layer_1" xmlns="http://www.w3.org/2000/svg" fill="#9297B3" width="24px" height="24px" xmlns:xlink="http://www.w3.org/1999/xlink" x="0px" y="0px"
	 viewBox="0 0 555 555" style="enable-background:new 0 0 555 555;" xml:space="preserve">

<g>
	<path class="st0" fill="current" d="M-1383.95-374.78c-0.01,35.15-3.11,69.82-16.43,102.82c-15.78,39.08-44.11,64.92-83.66,78.76
		c-19.92,6.97-40.51,10.65-61.52,12.05c-9.58,0.64-19.19,0.87-28.78,1.29c-1.3-0.45-2.59-1.29-3.89-1.29
		c-53.24-0.07-106.48-0.06-159.72,0c-1.21,0-2.42,0.74-3.63,1.13c-15.77-1.42-31.61-2.28-47.29-4.41
		c-18.52-2.52-36.33-8.03-53.14-16.34c-37.22-18.42-59.9-48.72-71.45-88.02c-5.88-20-8.89-40.45-9.78-61.23
		c-0.27-6.23-0.38-12.48-0.56-18.71c0.47-1.4,1.36-2.8,1.36-4.2c0.07-48.92,0.1-97.85,0-146.77c-0.01-5.42-0.87-10.84-1.34-16.25
		c0.76-36.78,5.46-72.75,22.86-105.9c15.4-29.34,39.09-49.54,69.66-61.83c18.89-7.6,38.57-12.29,58.83-13.78
		c18.28-1.35,36.65-2.17,54.98-2.27c50.61-0.27,101.23-0.36,151.83,0.1c29.22,0.27,58.01,4.2,85.58,14.64
		c34.06,12.91,59.73,35.1,75.61,68.22c10.67,22.25,16.15,45.85,18.38,70.25c1.11,12.16,1.41,24.4,2.07,36.61
		c-0.19,1.46-0.54,2.92-0.54,4.38c-0.03,48.8-0.03,97.6,0,146.41C-1384.54-377.69-1384.16-376.23-1383.95-374.78z M-1422-548.75
		c-1.44-16.05-3.16-32.06-7.43-47.67c-4.95-18.08-12.5-34.78-25.52-48.6c-16.44-17.44-37.37-26.42-60.29-31.16
		c-11.58-2.4-23.41-3.63-35.12-5.39c-1.64-0.49-3.27-1.4-4.91-1.4c-60.31-0.07-120.62-0.05-180.92-0.09
		c-4.22,0-8.44-0.53-12.66-0.68c-1.58-0.06-3.58,0.95-4.7,0.29c-3.35-1.97-5.04-0.19-6.78,2.15c-0.79,0.11-1.57,0.23-2.36,0.34
		c-5.22,0.56-10.45,1.12-15.68,1.68c-9.57,2.27-19.29,4.06-28.7,6.89c-33.03,9.96-55.86,30.86-67.57,63.67
		c-8.12,22.77-11.3,46.39-11.52,70.27c-0.51,55.86-0.24,111.73-0.2,167.59c0.02,22.41,1.94,44.63,7.5,66.43
		c9.62,37.78,31.74,64.15,69.42,76.48c23.03,7.54,46.85,10.36,70.86,10.45c60.11,0.21,120.21-0.07,180.32-0.58
		c20.16-0.17,40.04-3.42,59.27-9.75c23-7.57,42.23-20.29,55.2-41.31c9.8-15.88,15.02-33.39,18.23-51.6c1.9-1.75,2.78-3.68,1.09-6.07
		c0.08-0.48,0.16-0.95,0.24-1.43c0.45-0.53,1.25-1.03,1.3-1.6c1.09-10.84,2.91-21.68,2.97-32.53c0.3-56.34,0.14-112.68,0.14-169.02
		c0-4.57,0.14-9.15-0.12-13.71C-1420.02-546.34-1421.29-547.53-1422-548.75z"/>
	<path class="st0" fill="current" d="M-1741.6-180.02c1.21-0.39,2.42-1.13,3.63-1.13c53.24-0.06,106.48-0.06,159.72,0c1.3,0,2.59,0.84,3.89,1.29
		c-0.62,0.05-1.24,0.14-1.87,0.14c-54.13-0.03-108.26-0.06-162.4-0.11C-1739.61-179.83-1740.6-179.95-1741.6-180.02z"/>
	<path class="st1" fill="current" d="M-1923.8-535.97c0.47,5.42,1.33,10.83,1.34,16.25c0.11,48.92,0.07,97.85,0,146.77c0,1.4-0.89,2.8-1.36,4.2
		c-0.04-0.62-0.12-1.25-0.12-1.87c0-54.37,0.01-108.74,0.02-163.11C-1923.92-534.47-1923.84-535.22-1923.8-535.97z"/>
	<path class="st2" fill="current" d="M-1383.95-374.78c-0.2-1.45-0.59-2.91-0.59-4.36c-0.03-48.8-0.03-97.6,0-146.41c0-1.46,0.35-2.92,0.54-4.38
		c0.06,2.25,0.18,4.49,0.18,6.74c0.01,48.47,0.01,96.95,0,145.42C-1383.82-376.77-1383.91-375.78-1383.95-374.78z"/>
	<path class="st0" fill="current" d="M-1424.23-328.23c0.48-5.94,1.03-11.87,1.42-17.82c0.53-8.08,1.3-16.16,1.31-24.24
		c0.1-54.12,0.05-108.24,0-162.36c-0.01-5.36-0.33-10.73-0.5-16.09c0.72,1.22,1.99,2.41,2.06,3.66c0.26,4.56,0.12,9.14,0.12,13.71
		c0,56.34,0.16,112.68-0.14,169.02c-0.06,10.85-1.88,21.69-2.97,32.53C-1422.99-329.26-1423.78-328.76-1424.23-328.23z"/>
	<path class="st0" fill="current" d="M-1550.36-681.56c-23.95-0.24-47.91-0.61-71.86-0.68c-39.07-0.11-78.14-0.05-117.2,0.05
		c-6.97,0.02-13.94,0.58-20.91,0.89c1.74-2.33,3.43-4.12,6.78-2.15c1.12,0.66,3.12-0.34,4.7-0.29c4.22,0.15,8.44,0.67,12.66,0.68
		c60.31,0.05,120.62,0.02,180.92,0.09C-1553.63-682.96-1552-682.05-1550.36-681.56z"/>
	<path class="st3" fill="current" d="M-1762.7-680.96c-5.22,0.56-10.45,1.12-15.68,1.68C-1773.15-679.84-1767.92-680.4-1762.7-680.96z"/>
	<path class="st4" fill="current" d="M-1425.57-320.73c0.36-2.02,0.73-4.05,1.09-6.07C-1422.79-324.41-1423.66-322.48-1425.57-320.73z"/>
	<path class="st0" fill="current" d="M-1497.13-493.38c0.22,69.65-42.74,120.95-101.64,131.54c-14.14,2.54-28.3,2.77-42.44,0.02
		c-3.14-0.61-5.49-0.07-7.98,2.44c-18.11,18.28-36.3,36.48-54.73,54.44c-10.01,9.75-22.39,13.23-36.18,11.56
		c-10.03-1.21-20.04-2.63-30.05-4.01c-18.58-2.57-34.63-19.34-36.65-37.97c-1.01-9.3-2.55-18.54-3.64-27.83
		c-1.77-15.11,2.84-28.17,13.5-38.94c17.31-17.49,34.75-34.86,52.24-52.17c2.45-2.43,3.2-4.63,2.7-8.19
		c-6.73-47.67,8.12-87.29,45.56-117.7c23.53-19.11,51.14-27.67,81.31-26.08c40.55,2.13,72.93,20.06,96.42,53.3
		C-1504-532.17-1497.3-508.66-1497.13-493.38z M-1693.36-368.66c1.88-1.61,2.88-2.37,3.76-3.24c7.62-7.58,15.41-14.99,22.76-22.82
		c6.65-7.07,14.06-8.94,23.37-6.1c11.97,3.65,24.28,4.2,36.68,2.16c53.93-8.86,86.04-64.82,66.39-115.75
		c-14.23-36.87-53.27-59.51-92.52-53.67c-51.27,7.63-84.02,58.05-70.01,108.03c2.59,9.25,0.74,16.65-6.18,23.46
		c-20.23,19.88-40.16,40.08-60.26,60.08c-2.55,2.54-4.19,5.26-3.7,8.94c1.22,9.15,2.39,18.31,3.75,27.43
		c0.52,3.45,2.74,5.42,6.32,5.87c7.3,0.92,14.57,2.09,21.88,2.82c3.51,0.35,7.85,1.19,10.47-0.41c4.2-2.55,7.29-6.93,11.53-11.23
		c-2.86-2.53-5.59-4.72-8.06-7.18c-7.86-7.83-7.88-19.46-0.15-27.11c7.51-7.44,19.15-7.18,26.81,0.67
		C-1698.09-374.19-1695.88-371.5-1693.36-368.66z"/>
	<path class="st0" fill="current" d="M-1593.75-482.49c0,13.9-11.09,25.08-24.92,25.14c-13.88,0.06-25.45-11.4-25.44-25.17
		c0.01-13.96,11.27-25,25.48-25C-1604.74-507.53-1593.75-496.46-1593.75-482.49z"/>
</g>
<g>
	<g>
		<path class="st0" fill="current" d="M13.08,114.53c12.32-43.42,37.66-75.68,79.87-93.7c22.75-9.71,46.59-14.41,71.08-16.46
			c2.22-0.19,4.44-0.47,6.65-0.7c1.13,0.28,2.26,0.79,3.4,0.79c9.06,0.07,18.13,0.04,27.19,0.04c53.88,0,107.76,0,161.65,0.01
			c1.55,0,3.11,0.18,4.65,0.12c6.25-0.24,12.49-0.55,18.74-0.83c27.46,2.16,54.26,7.13,79.52,18.67
			c36.46,16.65,60.3,44.67,72.99,82.26c3.78,11.2,5.85,22.98,8.7,34.49c0.26,4.79,0.52,9.59,0.83,14.38c0.01,0.12,0.61,0.2,0.93,0.3
			c0.05,0.67,0.1,1.34,0.14,2.01c-1.55,2.39-2.45,4.68,0.99,6.29c0.01,1.02,0.02,2.04,0.02,3.07c-0.08,4.88-0.31,9.77-0.14,14.64
			c0.05,1.38,1.26,2.73,1.95,4.09c0.01,0.69,0.02,1.38,0.03,2.07c-2.82,2.99-2.78,10.66,0.08,13.49
			c0.05,40.52,0.13,81.04,0.14,121.56c0.01,14.48-0.12,28.96-0.18,43.45c-0.52,2.39-3.41,4.76-0.07,7.19
			c-0.02,0.72-0.05,1.44-0.07,2.16c-0.1,0.09-0.29,0.18-0.28,0.25c0.03,0.23,0.14,0.44,0.22,0.66
			c-1.39,29.03-5.43,57.55-16.46,84.71c-17.48,43.03-49.67,69.33-93.55,82.35c-20.9,6.2-42.31,9.27-64.05,10.23
			c-2.38,0.04-4.76,0.08-7.15,0.12c-3.8,0.05-7.61,0.09-11.41,0.14c-1.78-0.37-3.56-1.06-5.34-1.06
			c-52.82-0.06-105.64-0.06-158.47,0c-1.79,0-3.57,0.66-5.36,1.01c-38.17-0.27-75.32-5.43-109.59-23.61
			C45,509.8,24.09,479.25,13.01,441.18c-0.24-0.81-0.16-1.71-0.23-2.57c-1.75-9.87-3.47-19.75-5.3-29.6
			c-0.13-0.71-1.07-1.26-1.64-1.89c-0.12-1.72-0.24-3.43-0.36-5.15c0.06-3.57,0.45-7.18,0.11-10.72c-0.46-4.77-1.49-9.49-2.27-14.23
			c-0.21-2.45-0.41-4.91-0.62-7.36c0.29-1.99,0.83-3.98,0.83-5.97c0.05-57.81,0.02-115.62,0.1-173.42c0-2.47,1.15-4.92,1.34-7.41
			c0.39-5.19,2.68-10.58-1.18-15.46c0.09-1.04,0.18-2.07,0.27-3.11c0.16-0.7,0.33-1.4,0.49-2.1c0.05-1.03,0.09-2.05,0.14-3.08
			c1.36-4,3.14-7.9,3.98-12.01c1.63-8,2.82-16.1,4.01-24.19C13.08,120.16,12.96,117.33,13.08,114.53z M41.05,175.73
			c-0.05,1.37-0.1,2.74-0.15,4.11c-0.02,1.04-0.03,2.09-0.05,3.13c-0.67,1.36-1.92,2.71-1.92,4.07c-0.1,60.57-0.09,121.14,0,181.71
			c0,1.36,1.24,2.72,1.9,4.08c0.05,2.07,0.1,4.14,0.16,6.2c-0.37,1.26-1.13,2.54-1.04,3.76c0.55,7.45,1.23,14.89,2.06,22.32
			c0.12,1.06,1.28,2,1.96,3c-0.02,0.7-0.04,1.41-0.07,2.11c-2.45,3.59,0.24,5.82,2.18,8.25c0.06,0.55,0.11,1.1,0.17,1.66
			c0,5.01-0.57,10.19,3.97,13.9c0.48,1.29,0.99,2.57,1.44,3.88c10.71,30.59,30.57,52.29,61.2,63.95
			c25.27,9.62,51.72,12.48,78.27,12.67c61.01,0.45,122.04-0.18,183.05-0.6c19.4-0.13,38.51-3.03,57.17-8.39
			c33.25-9.56,57.34-29.5,69.92-62.31c8.82-23.01,12.44-47.05,12.62-71.47c0.43-59.14,0.26-118.28,0.23-177.41
			c-0.01-23.2-2.08-46.17-8.35-68.63c-10.19-36.55-32.25-61.81-68.85-73.92c-23.07-7.63-46.84-10.49-70.84-10.71
			c-56.02-0.52-112.05-0.3-168.08-0.2c-24.03,0.04-47.9,1.95-71.24,8.22c-21.65,5.82-40.82,15.85-55.48,33.24
			c-16.51,19.58-23.43,43.11-27.22,67.8C42.76,158.64,42.04,167.2,41.05,175.73z M8.7,382.01c0.55-0.03,1.1-0.07,1.65-0.1
			c0.16-1.91,0.46-3.83,0.46-5.74c0.02-56.53,0.04-113.06-0.07-169.59c0-2.19-1.38-4.39-2.11-6.58c-0.65,2.28-1.86,4.56-1.86,6.84
			c-0.11,48.92-0.13,97.84-0.04,146.77c0.02,8.6,0.63,17.2,1.04,25.8C7.82,380.29,8.38,381.14,8.7,382.01z"/>
		<path class="st5" fill="current" d="M386.31,3.81c-6.25,0.28-12.49,0.59-18.74,0.83c-1.55,0.06-3.1-0.12-4.65-0.12
			c-53.88-0.01-107.76-0.01-161.65-0.01c-9.06,0-18.13,0.03-27.19-0.04c-1.14-0.01-2.27-0.52-3.4-0.79
			c10.35-0.4,20.7-1.14,31.04-1.15c54.47-0.09,108.94-0.05,163.41,0.08C372.19,2.62,379.25,3.39,386.31,3.81z"/>
		<path class="st6" fill="current" d="M3.79,167.41c3.86,4.88,1.58,10.27,1.18,15.46c-0.19,2.49-1.33,4.94-1.34,7.41
			c-0.08,57.81-0.05,115.62-0.1,173.42c0,1.99-0.54,3.98-0.83,5.97c-0.07-7.07-0.19-14.14-0.19-21.21
			C2.5,295.67,2.47,242.88,2.58,190.1C2.6,182.53,3.37,174.97,3.79,167.41z"/>
		<path class="st7" fill="current" d="M190.32,552.35c1.79-0.35,3.57-1.01,5.36-1.01c52.82-0.05,105.64-0.06,158.47,0c1.78,0,3.56,0.69,5.34,1.06
			c-41.9,0.06-83.81,0.14-125.72,0.16C219.29,552.57,204.81,552.43,190.32,552.35z"/>
		<path class="st8" fill="current" d="M13.08,114.53c-0.12,2.8,0,5.63-0.4,8.38c-1.19,8.09-2.38,16.19-4.01,24.19c-0.84,4.1-2.62,8.01-3.98,12.01
			C7.49,144.25,10.28,129.39,13.08,114.53z"/>
		<path class="st6" fill="current" d="M5.85,407.12c0.56,0.62,1.51,1.18,1.64,1.89c1.83,9.85,3.55,19.73,5.3,29.6
			C10.47,428.11,8.16,417.62,5.85,407.12z"/>
		<path class="st6" fill="current" d="M3.32,377.03c0.78,4.74,1.81,9.46,2.27,14.23c0.34,3.53-0.05,7.14-0.11,10.72
			C4.76,393.66,4.04,385.34,3.32,377.03z"/>
		<path class="st9" fill="current" d="M552.25,184.01c-0.68-1.36-1.9-2.71-1.95-4.09c-0.17-4.87,0.06-9.76,0.14-14.64
			C551.04,171.52,551.64,177.77,552.25,184.01z"/>
		<path class="st9" fill="current" d="M552.36,199.57c-2.85-2.83-2.9-10.49-0.08-13.49C552.3,190.58,552.33,195.07,552.36,199.57z"/>
		<path class="st9" fill="current" d="M549.28,153.92c-0.32-0.1-0.93-0.18-0.93-0.3c-0.31-4.79-0.57-9.58-0.83-14.38
			C548.1,144.13,548.69,149.02,549.28,153.92z"/>
		<path class="st9" fill="current" d="M550.42,162.22c-3.45-1.6-2.54-3.89-0.99-6.29C549.75,158.02,550.09,160.12,550.42,162.22z"/>
		<path class="st9" fill="current" d="M552.25,371.76c-3.34-2.43-0.45-4.8,0.07-7.19C552.29,366.97,552.27,369.37,552.25,371.76z"/>
		<path class="st7" fill="current" d="M370.9,552.26c2.38-0.04,4.76-0.08,7.15-0.12C375.66,552.18,373.28,552.22,370.9,552.26z"/>
		<path class="st8" fill="current" d="M4.55,162.19c-0.17,0.7-0.33,1.4-0.49,2.1C4.22,163.6,4.39,162.89,4.55,162.19z"/>
		<path class="st9" fill="current" d="M552.11,374.84c-0.08-0.22-0.18-0.44-0.22-0.66c-0.01-0.07,0.18-0.17,0.28-0.25
			C552.31,374.24,552.29,374.55,552.11,374.84z"/>
		<path class="st10" fill="current" d="M8.7,382.01c-0.32-0.87-0.88-1.72-0.93-2.6c-0.41-8.6-1.03-17.2-1.04-25.8
			c-0.1-48.92-0.07-97.85,0.04-146.77c0.01-2.28,1.21-4.56,1.86-6.84c0.73,2.19,2.11,4.39,2.11,6.58
			c0.12,56.53,0.1,113.06,0.07,169.59c0,1.91-0.3,3.83-0.46,5.74C9.8,381.94,9.25,381.97,8.7,382.01z"/>
		<path class="st8" fill="current" d="M40.85,182.97c0.02,60.18,0.04,120.35,0.05,180.53c0,3.11-0.04,6.22-0.06,9.33c-0.66-1.36-1.9-2.72-1.9-4.08
			c-0.1-60.57-0.1-121.14,0-181.71C38.94,185.69,40.18,184.33,40.85,182.97z"/>
		<path class="st8" fill="current" d="M40.99,379.04c0.99,9.69,1.99,19.38,2.98,29.07c-0.68-1-1.84-1.94-1.96-3c-0.83-7.42-1.51-14.87-2.06-22.32
			C39.86,381.58,40.62,380.29,40.99,379.04z"/>
		<path class="st8" fill="current" d="M46.26,420.14c1.32,4.63,2.65,9.27,3.97,13.9C45.68,430.32,46.25,425.15,46.26,420.14z"/>
		<path class="st8" fill="current" d="M43.91,410.23c0.73,2.75,1.45,5.5,2.18,8.25C44.15,416.05,41.46,413.82,43.91,410.23z"/>
		<path class="st8" fill="current" d="M41.05,175.73c-0.05,1.37-0.1,2.74-0.15,4.11C40.95,178.47,41,177.1,41.05,175.73z"/>
		<path class="st0" fill="current" d="M136.63,381.15c-0.19-0.23-0.33-0.48-0.41-0.77c-1.54-6-5-10.53-10.38-13.61c0,0,0-0.01,0-0.01
			c-0.05-1.19,0.23-2.53-0.21-3.55c-4.35-9.95-8.82-19.84-13.26-29.76c-0.24-1.06-0.49-2.11-0.73-3.17
			c0.28-0.96,0.81-1.92,0.81-2.89c0-35.09-0.05-70.18-0.1-105.27c0.27-1.6,0.55-3.2,0.82-4.81c0.79-0.52,2.11-0.89,2.29-1.57
			c1.22-4.68,2.2-9.42,3.26-14.13c9.02-20.8,24.01-35.72,43.95-46.37c24.52-13.1,48.35-27.51,73.04-40.27
			c28.49-14.72,57.56-14.17,85.83,1.06c25.99,14,51.76,28.42,77.35,43.13c26.18,15.05,41.88,38.24,44.24,67.97
			c2.3,29.03,0.74,58.36,1.27,87.55c0.37,20.65-5.96,39.02-17.49,55.82c-9.12,13.29-21.61,22.47-35.68,30.05
			c-24.46,13.18-48.32,27.52-72.99,40.27c-26.74,13.82-54.5,13.63-81.19,0.11c-24.62-12.48-48.36-26.67-72.49-40.12
			c-0.45-0.25-0.82-0.63-1.22-0.95c-3.06-5.36-8.44-6.78-13.85-8.15c-0.24-0.03-0.45-0.12-0.63-0.27c-0.76-0.61-1.52-1.21-2.27-1.82
			c0,0,0.03-0.02,0.03-0.02c-0.87-3.26-2.85-5.17-6.36-5.22c-0.3-0.28-0.6-0.56-0.9-0.84c-0.59-0.49-1.17-0.98-1.76-1.47
			c0,0-0.12-0.12-0.12-0.12C137.19,381.7,136.91,381.42,136.63,381.15z M259.3,298.88c-1.39-1.19-2.64-2.62-4.19-3.52
			c-26.89-15.57-53.82-31.07-80.74-46.58c-8.14-4.69-16.3-9.36-24.99-14.34c-0.21,1.76-0.39,2.57-0.39,3.38
			c-0.01,27.65-0.73,55.33,0.27,82.94c0.63,17.41,9.03,31.72,24.34,41.01c8.54,5.19,17.44,9.8,26.17,14.67
			c17.94,10,35.87,20.04,53.87,29.92c1.44,0.79,3.7,3.96,5.12-0.3c0.58-0.96,1.57-1.89,1.64-2.88c0.12-1.66-0.52-3.37-0.52-5.06
			c-0.04-31.16-0.02-62.31-0.05-93.47C259.82,302.72,259.48,300.8,259.3,298.88z M406.18,247.3c0-1.04,0-2.08,0-3.12
			c3.28-2.75,3.26-5.51,0.03-8.28c-1.63,0.26-3.51,0.07-4.85,0.83c-33.83,19.42-67.59,38.98-101.43,58.37
			c-2.84,1.63-3.63,3.47-3.62,6.58c0.1,33.52,0.06,67.05,0.06,100.57c0,1.82,0,3.63,0,6.32c2.3-0.99,3.71-1.45,5-2.16
			c22.35-12.37,44.73-24.71,67-37.21c6.75-3.79,13.76-7.42,19.71-12.28c9.97-8.13,14.84-19.6,17.87-31.87
			c0.76-1.26,2.16-2.53,2.17-3.79c0.13-23.3,0.13-46.61,0.01-69.91C408.12,249.99,406.86,248.64,406.18,247.3z M164.96,198.9
			c2.22,1.59,2.99,2.24,3.86,2.74c34.63,20.08,69.31,40.08,103.86,60.29c3.48,2.04,5.98,2.02,9.42,0.01
			c32.05-18.71,64.22-37.23,96.33-55.84c3.52-2.04,6.93-4.25,11.17-6.86c-3.04-2.21-5.2-4.14-7.68-5.52
			c-26.79-15.01-53.44-30.29-80.52-44.75c-14.99-8-31.25-8.48-46.33-0.63c-24.79,12.9-48.98,26.96-73.38,40.6
			C176.34,191.9,171.16,195.18,164.96,198.9z"/>
		<path class="st11" fill="current" d="M112.36,222.13c0.04,35.09,0.09,70.18,0.1,105.27c0,0.96-0.53,1.92-0.81,2.89
			c-0.36-2.89-1.04-5.78-1.05-8.67c-0.08-28.61-0.13-57.22,0.03-85.83C110.65,231.23,111.75,226.68,112.36,222.13z"/>
		<path class="st11" fill="current" d="M112.37,333.45c4.44,9.91,8.91,19.81,13.26,29.76c0.45,1.02,0.16,2.36,0.21,3.55
			C118.18,356.94,113.77,345.81,112.37,333.45z"/>
		<path class="st11" fill="current" d="M125.84,366.77c5.37,3.08,8.84,7.61,10.38,13.61C132.76,375.84,129.3,371.31,125.84,366.77z"/>
		<path class="st11" fill="current" d="M118.72,201.62c-1.06,4.72-2.04,9.46-3.26,14.13c-0.18,0.68-1.5,1.05-2.29,1.57
			C115.02,212.09,116.87,206.86,118.72,201.62z"/>
		<path class="st11" fill="current" d="M149.48,391.74c5.41,1.37,10.79,2.79,13.85,8.15C158.71,397.17,154.09,394.45,149.48,391.74z"/>
		<path class="st11" fill="current" d="M140.25,384.41c3.51,0.05,5.48,1.97,6.36,5.22C144.48,387.89,142.37,386.15,140.25,384.41z"/>
		<path class="st11" fill="current" d="M146.57,389.65c0.76,0.61,1.51,1.21,2.27,1.82C148.09,390.86,147.33,390.26,146.57,389.65z"/>
		<path class="st11" fill="current" d="M137.58,382.1c0.59,0.49,1.17,0.98,1.76,1.47C138.76,383.08,138.17,382.59,137.58,382.1z"/>
		<path class="st11" fill="current" d="M136.63,381.15c0.28,0.28,0.56,0.56,0.84,0.83C137.19,381.7,136.91,381.42,136.63,381.15z"/>
		<path class="st4" fill="current" d="M405.95,325.04c0.08-25.91,0.15-51.83,0.23-77.74c0.68,1.35,1.95,2.69,1.95,4.04
			c0.12,23.3,0.12,46.61-0.01,69.91C408.11,322.52,406.7,323.78,405.95,325.04z"/>
		<path class="st7" fill="current" d="M258.75,406.06c-0.04-34.73-0.09-69.47-0.09-104.2c0-0.99,0.42-1.98,0.64-2.97c0.18,1.92,0.52,3.84,0.52,5.76
			c0.03,31.16,0.01,62.31,0.05,93.47c0,1.69,0.65,3.4,0.52,5.06C260.32,404.17,259.33,405.1,258.75,406.06z"/>
		<path class="st4" fill="current" d="M406.18,244.17c0.01-2.76,0.02-5.52,0.03-8.28C409.44,238.67,409.46,241.43,406.18,244.17z"/>
	</g>
</g>
<g>
	<g>
		<path class="st12" fill="current" d="M-1463.48,1284.46c0,51.12,0.51,89.77-0.23,128.39c-0.33,17.04-3.09,34.04-4.95,51.03
			c-3.13,28.59-11.13,55.73-24.67,81.18c-20.59,38.71-52.17,64.75-92.85,80.03c-33.14,12.45-67.62,18.48-102.94,18.75
			c-77.25,0.6-154.51,1.3-231.76,0.76c-42.89-0.3-85.09-6.34-124.89-23.98c-35.26-15.64-62.44-40-81.15-73.81
			c-15.21-27.5-23.7-57.17-26.79-88.18c-2.43-24.45-3.76-49.11-3.93-73.68c-0.5-69.85-1.32-139.73,0.25-209.55
			c1.05-46.62,9.12-92.36,33.84-133.39c18.82-31.25,45.26-53.8,78.56-68.5c29.03-12.82,59.6-19.58,91.09-21.33
			c30.02-1.67,60.13-2.17,90.2-2.39c50.86-0.36,101.73-0.44,152.59,0.04c27.65,0.26,55.3,1.7,82.5,7.45
			c23.75,5.02,46.69,12.15,68.1,24.05c26.18,14.55,47.07,34.46,62.48,59.97c17.98,29.77,26.46,62.58,30.96,96.87
			C-1460.15,1191.01-1465.25,1244.03-1463.48,1284.46z M-1593.44,1575.39c2.85-1.24,4.86-1.98,6.74-2.95
			c25.34-13.17,43.52-33.1,55.19-59.02c13.38-29.72,18.92-61.44,19.14-93.52c0.59-85.55-0.15-171.11-0.92-256.66
			c-0.21-22.95-5.11-45.39-12.38-67.2c-13.25-39.72-39.23-67.03-78.67-81.82c-31.75-11.9-64.87-15.6-98.19-15.83
			c-76.17-0.53-152.35,0.24-228.53,0.71c-24.73,0.15-49.03,3.92-72.81,10.73c-42.45,12.16-73.17,37.51-89.08,79.52
			c-11.98,31.62-16.17,64.56-16.31,98.05c-0.3,70.3-0.03,140.61-0.16,210.91c-0.04,24.69,1.73,49.21,6.69,73.4
			c6.45,31.53,17.91,60.63,42.48,82.92c9.54,8.65,20.03,15.84,32.5,20.77c1.03-2.75,1.96-4.93,2.68-7.18
			c7.6-23.46,20.53-43.81,37.15-61.74c24.18-26.08,53.6-44.35,86.85-56.65c41.54-15.37,84.27-19.38,128.01-13.3
			c29.41,4.08,57.27,12.98,83.48,27.12c28.05,15.13,52.05,34.78,70.86,60.7C-1607.59,1539.66-1599.76,1556.56-1593.44,1575.39z
			 M-1980.85,1589.61c1.82,0.59,3.39,1.42,5.03,1.58c17.96,1.81,35.93,5.11,53.88,4.97c85.67-0.64,171.39,3.23,257-2.31
			c8.24-0.53,16.4-2.36,24.99-3.64c-0.7-2.51-0.93-3.56-1.28-4.56c-11.86-34.19-34.99-58.95-65.79-76.63
			c-43.46-24.95-90.43-31.65-139.52-23.75c-42.8,6.89-80.14,24.72-109.01,57.93C-1967.22,1556.62-1976.18,1571.73-1980.85,1589.61z"
			/>
		<path class="st12" fill="current" d="M-1670.53,1251.47c-1.03,77.76-60.87,139.63-139.95,140.38c-76.36,0.72-140.26-63.39-140.14-139.71
			c0.12-79.85,65.05-141.21,141.05-140.53C-1733.09,1112.28-1670.63,1174.43-1670.53,1251.47z M-1810.22,1160.21
			c-50.99-0.04-92.22,40.37-91.91,90.81c0.31,50.77,38.55,92.33,92.15,92.23c51.79-0.1,90.65-41.65,90.94-91.47
			C-1718.75,1200.98-1759.52,1160.25-1810.22,1160.21z"/>
	</g>
</g>
</svg>
