<svg version="1.1" id="Layer_1" xmlns="http://www.w3.org/2000/svg" fill="#9297B3" width="24px" height="24px" xmlns:xlink="http://www.w3.org/1999/xlink" x="0px" y="0px"
	viewBox="0 0 555 555" style="enable-background:new 0 0 555 555;" xml:space="preserve">
<g>
	<path class="st0" fill="current" d="M552.36,353.7c-0.01,35.79-3.17,71.1-16.74,104.7c-16.07,39.79-44.92,66.1-85.19,80.2
		c-20.28,7.1-41.25,10.85-62.64,12.27c-9.76,0.65-19.54,0.89-29.31,1.31c-1.32-0.46-2.64-1.31-3.96-1.31
		c-54.22-0.07-108.43-0.06-162.65-0.01c-1.23,0-2.47,0.75-3.7,1.16c-16.06-1.45-32.19-2.32-48.15-4.49
		c-18.86-2.57-37-8.17-54.11-16.64c-37.9-18.76-61-49.61-72.76-89.63c-5.98-20.36-9.05-41.19-9.96-62.35
		c-0.27-6.35-0.39-12.7-0.57-19.06c0.48-1.43,1.38-2.85,1.39-4.28c0.07-49.82,0.11-99.64,0-149.45C4,200.6,3.12,195.08,2.64,189.57
		c0.77-37.45,5.56-74.08,23.28-107.84c15.68-29.88,39.8-50.44,70.93-62.97c19.24-7.74,39.28-12.51,59.91-14.03
		c18.62-1.37,37.32-2.21,55.98-2.31c51.54-0.28,103.08-0.37,154.61,0.11c29.75,0.27,59.07,4.28,87.14,14.91
		c34.68,13.14,60.82,35.74,77,69.47c10.87,22.66,16.45,46.69,18.71,71.53c1.13,12.39,1.43,24.85,2.11,37.28
		c-0.19,1.49-0.55,2.98-0.55,4.46c-0.03,49.69-0.03,99.39,0,149.08C551.77,350.74,552.15,352.22,552.36,353.7z M513.62,176.55
		c-1.47-16.35-3.21-32.64-7.56-48.55c-5.04-18.41-12.73-35.42-25.99-49.49c-16.74-17.76-38.05-26.9-61.39-31.73
		c-11.79-2.44-23.83-3.69-35.76-5.48c-1.67-0.5-3.33-1.43-5-1.43c-61.41-0.07-122.82-0.05-184.23-0.09c-4.3,0-8.59-0.54-12.89-0.69
		c-1.61-0.06-3.65,0.96-4.79,0.29c-3.41-2.01-5.14-0.19-6.9,2.18c-0.8,0.12-1.6,0.23-2.4,0.35c-5.32,0.57-10.64,1.14-15.96,1.72
		c-9.75,2.31-19.65,4.13-29.22,7.02c-33.63,10.15-56.88,31.42-68.8,64.84c-8.27,23.18-11.51,47.24-11.73,71.56
		c-0.52,56.88-0.25,113.77-0.21,170.66c0.02,22.82,1.98,45.44,7.64,67.65c9.8,38.47,32.32,65.32,70.69,77.88
		c23.46,7.68,47.7,10.55,72.16,10.64c61.2,0.22,122.41-0.07,183.62-0.59c20.53-0.18,40.77-3.49,60.35-9.93
		c23.42-7.71,43.01-20.66,56.21-42.07c9.98-16.17,15.3-34,18.57-52.55c1.94-1.78,2.83-3.75,1.11-6.18c0.08-0.48,0.16-0.97,0.25-1.45
		c0.46-0.54,1.27-1.04,1.33-1.62c1.11-11.04,2.96-22.08,3.02-33.12c0.3-57.37,0.14-114.74,0.14-172.11c0-4.66,0.14-9.32-0.12-13.96
		C515.64,179,514.35,177.79,513.62,176.55z"/>
	<path class="st0" fill="current" d="M188.18,552.02c1.23-0.4,2.47-1.15,3.7-1.16c54.22-0.06,108.43-0.06,162.65,0.01c1.32,0,2.64,0.86,3.96,1.31
		c-0.63,0.05-1.27,0.15-1.9,0.14c-55.12-0.03-110.24-0.06-165.37-0.11C190.21,552.22,189.19,552.09,188.18,552.02z"/>
	<path class="st1" fill="current" d="M2.64,189.57c0.48,5.52,1.36,11.03,1.37,16.55c0.11,49.82,0.07,99.64,0,149.45c0,1.43-0.9,2.85-1.39,4.28
		c-0.04-0.63-0.13-1.27-0.13-1.9c0-55.36,0.01-110.73,0.02-166.09C2.52,191.09,2.6,190.33,2.64,189.57z"/>
	<path class="st2" fill="current" d="M552.36,353.7c-0.21-1.48-0.6-2.96-0.6-4.44c-0.03-49.69-0.03-99.39,0-149.08c0-1.49,0.36-2.98,0.55-4.46
		c0.06,2.29,0.18,4.57,0.18,6.86c0.01,49.36,0.01,98.72,0,148.08C552.49,351.67,552.41,352.69,552.36,353.7z"/>
	<path class="st0" fill="current" d="M511.35,401.1c0.49-6.05,1.05-12.09,1.45-18.15c0.54-8.22,1.32-16.46,1.34-24.69
		c0.11-55.11,0.05-110.22,0-165.33c-0.01-5.46-0.33-10.93-0.51-16.39c0.73,1.24,2.02,2.45,2.09,3.73c0.26,4.64,0.12,9.31,0.12,13.96
		c0,57.37,0.16,114.74-0.14,172.11c-0.06,11.05-1.91,22.09-3.02,33.12C512.61,400.06,511.81,400.56,511.35,401.1z"/>
	<path class="st0" fill="current" d="M382.91,41.31c-24.39-0.24-48.78-0.62-73.17-0.69c-39.78-0.11-79.57-0.05-119.35,0.05
		c-7.1,0.02-14.2,0.59-21.3,0.91c1.77-2.38,3.5-4.2,6.9-2.19c1.14,0.67,3.17-0.35,4.79-0.29c4.3,0.15,8.6,0.68,12.89,0.69
		c61.41,0.05,122.82,0.02,184.23,0.09C379.58,39.88,381.24,40.81,382.91,41.31z"/>
	<path class="st3" fill="current" d="M166.69,41.92c-5.32,0.57-10.64,1.14-15.96,1.72C156.05,43.06,161.37,42.49,166.69,41.92z"/>
	<path class="st4" fill="current" d="M509.99,408.74c0.37-2.06,0.74-4.12,1.11-6.18C512.82,404.99,511.93,406.96,509.99,408.74z"/>
	<path class="st0" fill="current" d="M437.12,232.93c0.23,70.93-43.52,123.17-103.5,133.95c-14.4,2.59-28.81,2.82-43.22,0.02
		c-3.2-0.62-5.59-0.07-8.12,2.48c-18.44,18.61-36.96,37.15-55.73,55.43c-10.19,9.93-22.8,13.47-36.84,11.77
		c-10.22-1.24-20.41-2.68-30.6-4.09c-18.92-2.62-35.26-19.69-37.32-38.66c-1.03-9.47-2.6-18.88-3.7-28.34
		c-1.8-15.39,2.9-28.69,13.75-39.65c17.63-17.81,35.38-35.5,53.19-53.13c2.5-2.47,3.26-4.72,2.75-8.34
		c-6.86-48.54,8.27-88.89,46.4-119.86c23.96-19.46,52.08-28.17,82.8-26.56c41.29,2.17,74.27,20.43,98.18,54.28
		C430.12,193.44,436.94,217.37,437.12,232.93z M237.3,359.93c1.91-1.64,2.93-2.41,3.82-3.3c7.76-7.71,15.69-15.27,23.18-23.24
		c6.77-7.2,14.32-9.1,23.8-6.21c12.19,3.72,24.72,4.28,37.35,2.2c54.91-9.02,87.61-66.01,67.6-117.86
		c-14.49-37.54-54.24-60.6-94.22-54.65c-52.21,7.77-85.56,59.11-71.29,110.01c2.64,9.42,0.75,16.96-6.3,23.88
		c-20.6,20.24-40.89,40.81-61.37,61.18c-2.6,2.59-4.26,5.36-3.76,9.11c1.24,9.32,2.43,18.64,3.82,27.93
		c0.52,3.51,2.8,5.52,6.43,5.98c7.43,0.93,14.83,2.13,22.28,2.87c3.57,0.36,7.99,1.21,10.66-0.41c4.28-2.59,7.42-7.06,11.74-11.44
		c-2.91-2.58-5.7-4.81-8.21-7.31c-8-7.97-8.02-19.82-0.15-27.61c7.65-7.57,19.5-7.31,27.3,0.68
		C232.48,354.3,234.73,357.04,237.3,359.93z"/>
	<path class="st0" fill="current" d="M338.73,244.03c0,14.15-11.29,25.54-25.37,25.6c-14.13,0.06-25.92-11.61-25.91-25.63
		c0.01-14.22,11.47-25.46,25.95-25.46C327.54,218.52,338.73,229.8,338.73,244.03z"/>
</g>
<g>
	<g>
		<path class="st0" fill="current" d="M-1883.34,170.47c12.32-43.42,37.66-75.68,79.87-93.7c22.75-9.71,46.59-14.41,71.08-16.46
			c2.22-0.19,4.43-0.47,6.65-0.7c1.13,0.28,2.26,0.79,3.4,0.79c9.06,0.07,18.13,0.04,27.19,0.04c53.88,0,107.76,0,161.65,0.01
			c1.55,0,3.11,0.18,4.65,0.12c6.25-0.24,12.49-0.55,18.74-0.83c27.46,2.16,54.26,7.13,79.52,18.67
			c36.46,16.65,60.3,44.67,72.99,82.26c3.78,11.2,5.85,22.98,8.7,34.49c0.26,4.79,0.52,9.59,0.83,14.38c0.01,0.12,0.61,0.2,0.93,0.3
			c0.05,0.67,0.1,1.34,0.14,2.01c-1.55,2.39-2.45,4.68,0.99,6.29c0.01,1.02,0.02,2.04,0.02,3.07c-0.08,4.88-0.31,9.77-0.14,14.64
			c0.05,1.38,1.26,2.73,1.95,4.09c0.01,0.69,0.02,1.38,0.03,2.07c-2.82,2.99-2.78,10.66,0.08,13.49
			c0.05,40.52,0.13,81.04,0.14,121.56c0.01,14.48-0.12,28.96-0.18,43.45c-0.52,2.39-3.41,4.76-0.06,7.19
			c-0.02,0.72-0.05,1.44-0.07,2.16c-0.1,0.09-0.29,0.18-0.28,0.25c0.03,0.23,0.14,0.44,0.21,0.66
			c-1.39,29.03-5.43,57.55-16.46,84.71c-17.48,43.03-49.67,69.33-93.55,82.35c-20.9,6.2-42.31,9.27-64.05,10.23
			c-2.38,0.04-4.76,0.08-7.15,0.12c-3.8,0.05-7.61,0.09-11.41,0.14c-1.78-0.37-3.56-1.06-5.34-1.06
			c-52.82-0.06-105.64-0.06-158.47,0c-1.79,0-3.57,0.66-5.36,1.01c-38.17-0.27-75.32-5.43-109.59-23.61
			c-35.72-18.95-56.63-49.5-67.71-87.57c-0.24-0.81-0.16-1.71-0.23-2.57c-1.75-9.87-3.47-19.75-5.3-29.6
			c-0.13-0.71-1.07-1.26-1.64-1.89c-0.12-1.72-0.24-3.43-0.36-5.15c0.06-3.57,0.45-7.18,0.11-10.72c-0.46-4.77-1.49-9.49-2.27-14.23
			c-0.21-2.45-0.41-4.91-0.62-7.36c0.29-1.99,0.83-3.98,0.83-5.97c0.05-57.81,0.02-115.62,0.1-173.42c0-2.47,1.15-4.92,1.34-7.41
			c0.39-5.19,2.68-10.58-1.18-15.46c0.09-1.04,0.18-2.07,0.27-3.11c0.16-0.7,0.33-1.4,0.49-2.1c0.05-1.03,0.09-2.05,0.14-3.08
			c1.36-4,3.14-7.9,3.98-12.01c1.63-8,2.82-16.1,4.01-24.19C-1883.34,176.1-1883.46,173.27-1883.34,170.47z M-1855.38,231.66
			c-0.05,1.37-0.1,2.74-0.15,4.11c-0.02,1.04-0.03,2.09-0.05,3.13c-0.67,1.36-1.92,2.71-1.92,4.07c-0.1,60.57-0.09,121.14,0,181.71
			c0,1.36,1.24,2.72,1.9,4.08c0.05,2.07,0.1,4.14,0.16,6.2c-0.37,1.26-1.13,2.54-1.04,3.76c0.55,7.45,1.23,14.89,2.06,22.32
			c0.12,1.06,1.28,2,1.96,3c-0.02,0.7-0.04,1.41-0.07,2.11c-2.45,3.59,0.24,5.82,2.18,8.25c0.06,0.55,0.11,1.1,0.17,1.66
			c0,5.01-0.57,10.19,3.97,13.9c0.48,1.29,0.99,2.57,1.44,3.88c10.71,30.59,30.57,52.29,61.2,63.95
			c25.27,9.62,51.72,12.48,78.27,12.67c61.01,0.45,122.04-0.18,183.06-0.6c19.4-0.13,38.51-3.03,57.17-8.39
			c33.25-9.56,57.34-29.5,69.92-62.31c8.82-23.01,12.44-47.05,12.62-71.47c0.43-59.14,0.26-118.28,0.23-177.41
			c-0.01-23.2-2.08-46.17-8.35-68.63c-10.19-36.55-32.25-61.81-68.85-73.92c-23.07-7.63-46.84-10.49-70.84-10.71
			c-56.02-0.52-112.05-0.3-168.08-0.2c-24.03,0.04-47.9,1.95-71.24,8.22c-21.65,5.82-40.82,15.85-55.48,33.24
			c-16.51,19.58-23.43,43.11-27.22,67.8C-1853.66,214.57-1854.39,223.14-1855.38,231.66z M-1887.72,437.94
			c0.55-0.03,1.1-0.07,1.65-0.1c0.16-1.91,0.46-3.83,0.46-5.74c0.02-56.53,0.04-113.06-0.07-169.59c0-2.19-1.38-4.39-2.11-6.58
			c-0.65,2.28-1.86,4.56-1.86,6.84c-0.11,48.92-0.13,97.85-0.04,146.77c0.02,8.6,0.63,17.2,1.04,25.8
			C-1888.6,436.22-1888.04,437.07-1887.72,437.94z"/>
		<path class="st5" fill="current" d="M-1510.12,59.75c-6.25,0.28-12.49,0.59-18.74,0.83c-1.55,0.06-3.1-0.12-4.65-0.12
			c-53.88-0.01-107.76-0.01-161.65-0.01c-9.06,0-18.13,0.03-27.19-0.04c-1.14-0.01-2.27-0.52-3.4-0.79
			c10.35-0.4,20.7-1.14,31.04-1.15c54.47-0.09,108.94-0.05,163.41,0.08C-1524.23,58.55-1517.17,59.33-1510.12,59.75z"/>
		<path class="st6" fill="current" d="M-1892.64,223.34c3.86,4.88,1.58,10.27,1.18,15.46c-0.19,2.49-1.33,4.94-1.34,7.41
			c-0.08,57.81-0.05,115.62-0.1,173.42c0,1.99-0.54,3.98-0.83,5.97c-0.07-7.07-0.19-14.14-0.19-21.21
			c-0.01-52.79-0.04-105.58,0.07-158.36C-1893.83,238.47-1893.06,230.9-1892.64,223.34z"/>
		<path class="st7" fill="current" d="M-1706.1,608.29c1.79-0.35,3.57-1.01,5.36-1.01c52.82-0.05,105.64-0.06,158.47,0c1.78,0,3.56,0.69,5.34,1.06
			c-41.9,0.06-83.81,0.14-125.72,0.16C-1677.14,608.5-1691.62,608.36-1706.1,608.29z"/>
		<path class="st8" fill="current" d="M-1883.34,170.47c-0.12,2.8,0,5.63-0.4,8.38c-1.19,8.09-2.38,16.19-4.01,24.19
			c-0.84,4.1-2.62,8.01-3.98,12.01C-1888.94,200.19-1886.14,185.33-1883.34,170.47z"/>
		<path class="st6" fill="current" d="M-1890.58,463.05c0.56,0.62,1.51,1.18,1.64,1.89c1.83,9.85,3.55,19.73,5.3,29.6
			C-1885.95,484.05-1888.27,473.55-1890.58,463.05z"/>
		<path class="st6" fill="current" d="M-1893.1,432.97c0.78,4.74,1.81,9.46,2.27,14.23c0.34,3.53-0.05,7.14-0.11,10.72
			C-1891.66,449.59-1892.38,441.28-1893.1,432.97z"/>
		<path class="st9" fill="current" d="M-1344.18,239.95c-0.68-1.36-1.9-2.71-1.95-4.09c-0.17-4.87,0.06-9.76,0.14-14.64
			C-1345.38,227.46-1344.78,233.7-1344.18,239.95z"/>
		<path class="st9" fill="current" d="M-1344.07,255.5c-2.85-2.83-2.9-10.49-0.08-13.49C-1344.12,246.51-1344.09,251.01-1344.07,255.5z"/>
		<path class="st9" fill="current" d="M-1347.15,209.85c-0.32-0.1-0.93-0.18-0.93-0.3c-0.31-4.79-0.57-9.58-0.83-14.38
			C-1348.32,200.07-1347.73,204.96-1347.15,209.85z"/>
		<path class="st9" fill="current" d="M-1346.01,218.15c-3.45-1.6-2.54-3.89-0.99-6.29C-1346.67,213.96-1346.34,216.06-1346.01,218.15z"/>
		<path class="st9" fill="current" d="M-1344.17,427.7c-3.34-2.43-0.45-4.8,0.06-7.19C-1344.13,422.91-1344.15,425.31-1344.17,427.7z"/>
		<path class="st7" fill="current" d="M-1525.53,608.2c2.38-0.04,4.76-0.08,7.15-0.12C-1520.76,608.12-1523.14,608.16-1525.53,608.2z"/>
		<path class="st8" fill="current" d="M-1891.87,218.13c-0.17,0.7-0.33,1.4-0.49,2.1C-1892.2,219.53-1892.04,218.83-1891.87,218.13z"/>
		<path class="st9" fill="current" d="M-1344.31,430.78c-0.08-0.22-0.18-0.44-0.21-0.66c-0.01-0.07,0.18-0.17,0.28-0.25
			C-1344.12,430.18-1344.14,430.48-1344.31,430.78z"/>
		<path class="st10" fill="current" d="M-1887.72,437.94c-0.32-0.87-0.88-1.72-0.93-2.6c-0.41-8.6-1.03-17.2-1.04-25.8
			c-0.1-48.92-0.07-97.85,0.04-146.77c0.01-2.28,1.21-4.56,1.86-6.84c0.73,2.19,2.11,4.39,2.11,6.58
			c0.12,56.53,0.1,113.06,0.07,169.59c0,1.91-0.3,3.83-0.46,5.74C-1886.62,437.87-1887.17,437.91-1887.72,437.94z"/>
		<path class="st8" fill="current" d="M-1855.57,238.91c0.02,60.18,0.04,120.35,0.05,180.53c0,3.11-0.04,6.22-0.06,9.33
			c-0.66-1.36-1.9-2.72-1.9-4.08c-0.1-60.57-0.1-121.14,0-181.71C-1857.49,241.62-1856.24,240.27-1855.57,238.91z"/>
		<path class="st8" fill="current" d="M-1855.43,434.97c0.99,9.69,1.99,19.38,2.98,29.07c-0.68-1-1.84-1.94-1.96-3
			c-0.83-7.42-1.51-14.87-2.06-22.32C-1856.56,437.51-1855.8,436.23-1855.43,434.97z"/>
		<path class="st8" fill="current" d="M-1850.17,476.07c1.32,4.63,2.65,9.27,3.97,13.9C-1850.74,486.26-1850.17,481.08-1850.17,476.07z"/>
		<path class="st8" fill="current" d="M-1852.52,466.16c0.73,2.75,1.45,5.5,2.18,8.25C-1852.28,471.98-1854.97,469.75-1852.52,466.16z"/>
		<path class="st8" fill="current" d="M-1855.38,231.66c-0.05,1.37-0.1,2.74-0.15,4.11C-1855.48,234.41-1855.43,233.04-1855.38,231.66z"/>
		<path class="st0" fill="current" d="M-1759.8,437.08c-0.19-0.23-0.33-0.48-0.41-0.77c-1.54-6-5.01-10.53-10.38-13.61c0,0,0-0.01,0-0.01
			c-0.05-1.19,0.23-2.53-0.21-3.55c-4.35-9.95-8.82-19.84-13.26-29.76c-0.24-1.06-0.49-2.11-0.73-3.17
			c0.28-0.96,0.81-1.92,0.81-2.89c0-35.09-0.05-70.18-0.1-105.27c0.27-1.6,0.55-3.2,0.82-4.81c0.79-0.52,2.11-0.89,2.29-1.57
			c1.22-4.68,2.2-9.42,3.26-14.13c9.02-20.8,24.01-35.72,43.95-46.37c24.52-13.1,48.35-27.51,73.04-40.27
			c28.49-14.72,57.56-14.17,85.83,1.06c25.99,14,51.76,28.42,77.35,43.13c26.18,15.05,41.88,38.24,44.24,67.97
			c2.3,29.03,0.74,58.36,1.27,87.55c0.37,20.65-5.96,39.02-17.49,55.82c-9.12,13.29-21.61,22.47-35.68,30.05
			c-24.46,13.18-48.32,27.52-72.99,40.27c-26.74,13.82-54.5,13.63-81.19,0.11c-24.62-12.48-48.36-26.67-72.49-40.12
			c-0.45-0.25-0.82-0.63-1.22-0.95c-3.06-5.36-8.44-6.78-13.85-8.15c-0.24-0.03-0.45-0.12-0.63-0.27c-0.76-0.61-1.52-1.21-2.27-1.82
			c0,0,0.03-0.02,0.03-0.02c-0.87-3.26-2.85-5.17-6.36-5.22c-0.3-0.28-0.6-0.56-0.9-0.84c-0.59-0.49-1.17-0.98-1.76-1.47
			c0,0-0.12-0.12-0.12-0.12C-1759.24,437.64-1759.52,437.36-1759.8,437.08z M-1637.13,354.82c-1.39-1.19-2.64-2.62-4.19-3.52
			c-26.89-15.57-53.82-31.07-80.74-46.58c-8.14-4.69-16.3-9.36-24.99-14.34c-0.21,1.76-0.39,2.57-0.39,3.38
			c-0.01,27.65-0.73,55.33,0.27,82.94c0.63,17.41,9.03,31.72,24.34,41.01c8.54,5.19,17.44,9.8,26.17,14.67
			c17.94,10,35.87,20.04,53.87,29.92c1.44,0.79,3.7,3.96,5.12-0.3c0.58-0.96,1.57-1.89,1.64-2.88c0.12-1.66-0.52-3.37-0.52-5.06
			c-0.04-31.16-0.02-62.31-0.05-93.47C-1636.6,358.66-1636.95,356.74-1637.13,354.82z M-1490.25,303.23c0-1.04,0-2.08,0-3.12
			c3.28-2.75,3.26-5.51,0.03-8.28c-1.63,0.26-3.51,0.07-4.85,0.83c-33.83,19.42-67.59,38.98-101.43,58.37
			c-2.84,1.63-3.63,3.47-3.62,6.58c0.1,33.52,0.06,67.05,0.06,100.57c0,1.82,0,3.63,0,6.32c2.3-0.99,3.71-1.45,5-2.16
			c22.35-12.37,44.73-24.71,67-37.21c6.75-3.79,13.76-7.42,19.71-12.28c9.97-8.13,14.84-19.6,17.87-31.87
			c0.76-1.26,2.16-2.53,2.17-3.79c0.13-23.3,0.13-46.61,0.01-69.91C-1488.3,305.92-1489.57,304.58-1490.25,303.23z M-1731.46,254.83
			c2.22,1.59,2.99,2.24,3.86,2.74c34.63,20.08,69.31,40.08,103.86,60.29c3.48,2.04,5.98,2.02,9.42,0.01
			c32.05-18.71,64.22-37.23,96.33-55.84c3.52-2.04,6.93-4.25,11.17-6.86c-3.04-2.21-5.2-4.14-7.68-5.52
			c-26.79-15.01-53.44-30.29-80.52-44.75c-14.99-8-31.25-8.48-46.33-0.63c-24.79,12.9-48.98,26.96-73.38,40.6
			C-1720.08,247.84-1725.26,251.12-1731.46,254.83z"/>
		<path class="st11" fill="current" d="M-1784.07,278.07c0.04,35.09,0.09,70.18,0.1,105.27c0,0.96-0.53,1.92-0.81,2.89
			c-0.36-2.89-1.04-5.78-1.05-8.67c-0.08-28.61-0.13-57.22,0.03-85.83C-1785.77,287.16-1784.67,282.62-1784.07,278.07z"/>
		<path class="st11" fill="current" d="M-1784.05,389.39c4.44,9.91,8.91,19.81,13.26,29.76c0.45,1.02,0.16,2.36,0.21,3.55
			C-1778.24,412.88-1782.65,401.74-1784.05,389.39z"/>
		<path class="st11" fill="current" d="M-1770.58,422.7c5.37,3.08,8.84,7.61,10.38,13.61C-1763.67,431.78-1767.13,427.24-1770.58,422.7z"/>
		<path class="st11" fill="current" d="M-1777.71,257.56c-1.06,4.72-2.04,9.46-3.26,14.13c-0.18,0.68-1.5,1.05-2.29,1.57
			C-1781.4,268.03-1779.55,262.79-1777.71,257.56z"/>
		<path class="st11" fill="current" d="M-1746.95,447.67c5.41,1.37,10.79,2.79,13.85,8.15C-1737.71,453.11-1742.33,450.39-1746.95,447.67z"/>
		<path class="st11" fill="current" d="M-1756.18,440.34c3.51,0.05,5.48,1.97,6.36,5.22C-1751.94,443.83-1754.06,442.09-1756.18,440.34z"/>
		<path class="st11" fill="current" d="M-1749.85,445.59c0.76,0.61,1.51,1.21,2.27,1.82C-1748.33,446.8-1749.09,446.19-1749.85,445.59z"/>
		<path class="st11" fill="current" d="M-1758.84,438.03c0.59,0.49,1.17,0.98,1.76,1.47C-1757.67,439.02-1758.26,438.52-1758.84,438.03z"/>
		<path class="st11" fill="current" d="M-1759.8,437.08c0.28,0.28,0.56,0.56,0.84,0.83C-1759.24,437.64-1759.52,437.36-1759.8,437.08z"/>
		<path class="st4" d="M-1490.48,380.98c0.08-25.91,0.15-51.83,0.23-77.74c0.68,1.35,1.95,2.69,1.95,4.04
			c0.12,23.3,0.12,46.61-0.01,69.91C-1488.32,378.45-1489.72,379.71-1490.48,380.98z"/>
		<path class="st7" fill="current" d="M-1637.67,461.99c-0.04-34.73-0.09-69.47-0.09-104.2c0-0.99,0.42-1.98,0.64-2.97
			c0.18,1.92,0.52,3.84,0.52,5.76c0.03,31.16,0.01,62.31,0.05,93.47c0,1.69,0.65,3.4,0.52,5.06
			C-1636.1,460.1-1637.09,461.03-1637.67,461.99z"/>
		<path class="st4" fill="current" d="M-1490.25,300.11c0.01-2.76,0.02-5.52,0.03-8.28C-1486.98,294.6-1486.96,297.36-1490.25,300.11z"/>
	</g>
</g>
<g>
	<g>
		<path class="st12" fill="current" d="M-1463.48,1284.46c0,51.12,0.51,89.77-0.23,128.39c-0.33,17.04-3.09,34.04-4.95,51.03
			c-3.13,28.59-11.13,55.73-24.67,81.18c-20.59,38.71-52.17,64.75-92.85,80.03c-33.14,12.45-67.62,18.48-102.94,18.75
			c-77.25,0.6-154.51,1.3-231.76,0.76c-42.89-0.3-85.09-6.34-124.89-23.98c-35.26-15.64-62.44-40-81.15-73.81
			c-15.21-27.5-23.7-57.17-26.79-88.18c-2.43-24.45-3.76-49.11-3.93-73.68c-0.5-69.85-1.32-139.73,0.25-209.55
			c1.05-46.62,9.12-92.36,33.84-133.39c18.82-31.25,45.26-53.8,78.56-68.5c29.03-12.82,59.6-19.58,91.09-21.33
			c30.02-1.67,60.13-2.17,90.2-2.39c50.86-0.36,101.73-0.44,152.59,0.04c27.65,0.26,55.3,1.7,82.5,7.45
			c23.75,5.02,46.69,12.15,68.1,24.05c26.18,14.55,47.07,34.46,62.48,59.97c17.98,29.77,26.46,62.58,30.96,96.87
			C-1460.15,1191.01-1465.25,1244.03-1463.48,1284.46z M-1593.44,1575.39c2.85-1.24,4.86-1.98,6.74-2.95
			c25.34-13.17,43.52-33.1,55.19-59.02c13.38-29.72,18.92-61.44,19.14-93.52c0.59-85.55-0.15-171.11-0.92-256.66
			c-0.21-22.95-5.11-45.39-12.38-67.2c-13.25-39.72-39.23-67.03-78.67-81.82c-31.75-11.9-64.87-15.6-98.19-15.83
			c-76.17-0.53-152.35,0.24-228.53,0.71c-24.73,0.15-49.03,3.92-72.81,10.73c-42.45,12.16-73.17,37.51-89.08,79.52
			c-11.98,31.62-16.17,64.56-16.31,98.05c-0.3,70.3-0.03,140.61-0.16,210.91c-0.04,24.69,1.73,49.21,6.69,73.4
			c6.45,31.53,17.91,60.63,42.48,82.92c9.54,8.65,20.03,15.84,32.5,20.77c1.03-2.75,1.96-4.93,2.68-7.18
			c7.6-23.46,20.53-43.81,37.15-61.74c24.18-26.08,53.6-44.35,86.85-56.65c41.54-15.37,84.27-19.38,128.01-13.3
			c29.41,4.08,57.27,12.98,83.48,27.12c28.05,15.13,52.05,34.78,70.86,60.7C-1607.59,1539.66-1599.76,1556.56-1593.44,1575.39z
			 M-1980.85,1589.61c1.82,0.59,3.39,1.42,5.03,1.58c17.96,1.81,35.93,5.11,53.88,4.97c85.67-0.64,171.39,3.23,257-2.31
			c8.24-0.53,16.4-2.36,24.99-3.64c-0.7-2.51-0.93-3.56-1.28-4.56c-11.86-34.19-34.99-58.95-65.79-76.63
			c-43.46-24.95-90.43-31.65-139.52-23.75c-42.8,6.89-80.14,24.72-109.01,57.93C-1967.22,1556.62-1976.18,1571.73-1980.85,1589.61z"
			/>
		<path class="st12" fill="current" d="M-1670.53,1251.47c-1.03,77.76-60.87,139.63-139.95,140.38c-76.36,0.72-140.26-63.39-140.14-139.71
			c0.12-79.85,65.05-141.21,141.05-140.53C-1733.09,1112.28-1670.63,1174.43-1670.53,1251.47z M-1810.22,1160.21
			c-50.99-0.04-92.22,40.37-91.91,90.81c0.31,50.77,38.55,92.33,92.15,92.23c51.79-0.1,90.65-41.65,90.94-91.47
			C-1718.75,1200.98-1759.52,1160.25-1810.22,1160.21z"/>
	</g>
</g>
</svg>
