<svg version="1.1" id="Layer_1" xmlns="http://www.w3.org/2000/svg" fill="#9297B3" width="24px" height="24px" xmlns:xlink="http://www.w3.org/1999/xlink" x="0px" y="0px"
	 viewBox="0 0 555 555" style="enable-background:new 0 0 555 555;" xml:space="preserve">
<g>
	<path class="st0" fill="current" d="M-1325.26-198.63c-0.01,35.79-3.17,71.1-16.74,104.7c-16.07,39.79-44.92,66.1-85.19,80.2
		c-20.28,7.1-41.25,10.85-62.64,12.27c-9.76,0.65-19.54,0.89-29.31,1.31c-1.32-0.46-2.64-1.31-3.96-1.31
		c-54.22-0.07-108.43-0.06-162.65-0.01c-1.23,0-2.47,0.75-3.7,1.16c-16.06-1.45-32.19-2.32-48.15-4.49
		c-18.86-2.57-37-8.17-54.11-16.64c-37.9-18.76-61-49.61-72.76-89.63c-5.98-20.36-9.05-41.19-9.96-62.35
		c-0.27-6.35-0.39-12.7-0.57-19.06c0.48-1.43,1.38-2.85,1.39-4.28c0.07-49.82,0.11-99.64,0-149.45c-0.01-5.52-0.89-11.03-1.37-16.55
		c0.77-37.45,5.56-74.08,23.28-107.84c15.68-29.88,39.8-50.44,70.93-62.97c19.24-7.74,39.28-12.51,59.91-14.03
		c18.62-1.37,37.32-2.21,55.98-2.31c51.54-0.28,103.08-0.37,154.61,0.11c29.75,0.27,59.07,4.28,87.14,14.91
		c34.68,13.14,60.82,35.74,77,69.47c10.87,22.66,16.45,46.69,18.71,71.53c1.13,12.39,1.43,24.85,2.11,37.28
		c-0.19,1.49-0.55,2.98-0.55,4.46c-0.03,49.69-0.03,99.39,0,149.08C-1325.85-201.59-1325.46-200.11-1325.26-198.63z M-1364-375.78
		c-1.47-16.35-3.21-32.64-7.56-48.55c-5.04-18.41-12.72-35.42-25.99-49.49c-16.74-17.76-38.05-26.9-61.39-31.73
		c-11.79-2.44-23.83-3.69-35.76-5.48c-1.67-0.5-3.33-1.43-5-1.43c-61.41-0.07-122.82-0.05-184.23-0.09c-4.3,0-8.59-0.54-12.89-0.69
		c-1.61-0.06-3.65,0.96-4.79,0.29c-3.41-2.01-5.14-0.19-6.9,2.18c-0.8,0.12-1.6,0.23-2.4,0.35c-5.32,0.57-10.64,1.14-15.96,1.72
		c-9.75,2.31-19.65,4.13-29.22,7.02c-33.63,10.15-56.88,31.42-68.8,64.84c-8.27,23.18-11.51,47.24-11.73,71.56
		c-0.52,56.88-0.25,113.77-0.21,170.66c0.02,22.82,1.98,45.44,7.64,67.65c9.8,38.47,32.32,65.32,70.69,77.88
		c23.46,7.68,47.7,10.55,72.16,10.64c61.2,0.22,122.41-0.07,183.62-0.59c20.53-0.18,40.77-3.49,60.35-9.93
		c23.42-7.71,43.01-20.66,56.21-42.07c9.98-16.17,15.3-34,18.57-52.55c1.94-1.78,2.83-3.75,1.11-6.18c0.08-0.48,0.16-0.97,0.25-1.45
		c0.46-0.54,1.27-1.04,1.33-1.62c1.11-11.04,2.96-22.08,3.02-33.12c0.3-57.37,0.14-114.74,0.14-172.11c0-4.66,0.14-9.32-0.12-13.96
		C-1361.98-373.33-1363.27-374.54-1364-375.78z"/>
	<path class="st0" fill="current" d="M-1689.44-0.31c1.23-0.4,2.47-1.15,3.7-1.16c54.22-0.06,108.43-0.06,162.65,0.01c1.32,0,2.64,0.86,3.96,1.31
		c-0.63,0.05-1.27,0.15-1.9,0.14c-55.12-0.03-110.24-0.06-165.37-0.11C-1687.41-0.11-1688.43-0.24-1689.44-0.31z"/>
	<path class="st1" fill="current" d="M-1874.98-362.76c0.48,5.52,1.36,11.03,1.37,16.55c0.11,49.82,0.07,99.64,0,149.45c0,1.43-0.9,2.85-1.39,4.28
		c-0.04-0.63-0.13-1.27-0.13-1.9c0-55.36,0.01-110.73,0.02-166.09C-1875.1-361.24-1875.02-362-1874.98-362.76z"/>
	<path class="st2" fill="current" d="M-1325.26-198.63c-0.21-1.48-0.6-2.96-0.6-4.44c-0.03-49.69-0.03-99.39,0-149.08c0-1.49,0.36-2.98,0.55-4.46
		c0.06,2.29,0.18,4.57,0.18,6.86c0.01,49.36,0.01,98.72,0,148.08C-1325.12-200.66-1325.21-199.64-1325.26-198.63z"/>
	<path class="st0" fill="current" d="M-1366.27-151.23c0.49-6.05,1.05-12.09,1.45-18.15c0.54-8.22,1.32-16.46,1.34-24.69
		c0.11-55.11,0.05-110.22,0-165.33c-0.01-5.46-0.33-10.93-0.51-16.39c0.73,1.24,2.02,2.45,2.09,3.73c0.26,4.64,0.12,9.31,0.12,13.96
		c0,57.37,0.16,114.74-0.14,172.11c-0.06,11.05-1.91,22.09-3.02,33.12C-1365-152.27-1365.81-151.77-1366.27-151.23z"/>
	<path class="st0" fill="current" d="M-1494.71-511.02c-24.39-0.24-48.78-0.62-73.17-0.69c-39.78-0.11-79.57-0.05-119.35,0.05
		c-7.1,0.02-14.2,0.59-21.3,0.91c1.77-2.38,3.5-4.2,6.9-2.19c1.14,0.67,3.17-0.35,4.79-0.29c4.3,0.15,8.6,0.68,12.89,0.69
		c61.41,0.05,122.82,0.02,184.23,0.09C-1498.04-512.45-1496.37-511.52-1494.71-511.02z"/>
	<path class="st3" fill="current" d="M-1710.93-510.41c-5.32,0.57-10.64,1.14-15.96,1.72C-1721.57-509.27-1716.25-509.84-1710.93-510.41z"/>
	<path class="st4" fill="current" d="M-1367.63-143.59c0.37-2.06,0.74-4.12,1.11-6.18C-1364.8-147.34-1365.69-145.37-1367.63-143.59z"/>
	<path class="st0" fill="current" d="M-1440.5-319.4c0.23,70.93-43.52,123.17-103.5,133.95c-14.4,2.59-28.81,2.82-43.22,0.02
		c-3.2-0.62-5.59-0.07-8.12,2.48c-18.44,18.61-36.96,37.15-55.73,55.43c-10.19,9.93-22.8,13.47-36.84,11.77
		c-10.22-1.24-20.41-2.68-30.6-4.09c-18.92-2.62-35.26-19.69-37.32-38.66c-1.03-9.47-2.6-18.88-3.7-28.34
		c-1.8-15.39,2.9-28.69,13.75-39.65c17.63-17.81,35.38-35.5,53.19-53.13c2.5-2.47,3.26-4.72,2.75-8.34
		c-6.86-48.54,8.27-88.89,46.4-119.86c23.96-19.46,52.08-28.17,82.8-26.56c41.29,2.17,74.27,20.43,98.18,54.28
		C-1447.5-358.89-1440.68-334.96-1440.5-319.4z M-1640.32-192.4c1.91-1.64,2.93-2.41,3.82-3.3c7.76-7.71,15.69-15.27,23.18-23.24
		c6.77-7.2,14.32-9.1,23.8-6.21c12.19,3.72,24.72,4.28,37.35,2.2c54.91-9.02,87.61-66.01,67.6-117.86
		c-14.49-37.54-54.24-60.6-94.22-54.65c-52.21,7.77-85.56,59.11-71.29,110.01c2.64,9.42,0.75,16.96-6.3,23.88
		c-20.6,20.24-40.89,40.81-61.37,61.18c-2.6,2.59-4.26,5.36-3.76,9.11c1.24,9.32,2.43,18.64,3.82,27.93
		c0.52,3.51,2.8,5.52,6.43,5.98c7.43,0.93,14.83,2.13,22.28,2.87c3.57,0.36,7.99,1.21,10.66-0.41c4.28-2.59,7.42-7.06,11.74-11.44
		c-2.91-2.58-5.7-4.81-8.21-7.31c-8-7.97-8.02-19.82-0.15-27.61c7.65-7.57,19.5-7.31,27.3,0.68
		C-1645.14-198.03-1642.89-195.28-1640.32-192.4z"/>
	<path class="st0" fill="current" d="M-1538.89-308.3c0,14.15-11.29,25.54-25.37,25.6c-14.13,0.06-25.92-11.61-25.91-25.63
		c0.01-14.22,11.47-25.46,25.95-25.46C-1550.08-333.81-1538.89-322.53-1538.89-308.3z"/>
</g>
<g>
	<g>
		<path class="st0" fill="current" d="M-1883.34,170.47c12.32-43.42,37.66-75.68,79.87-93.7c22.75-9.71,46.59-14.41,71.08-16.46
			c2.22-0.19,4.43-0.47,6.65-0.7c1.13,0.28,2.26,0.79,3.4,0.79c9.06,0.07,18.13,0.04,27.19,0.04c53.88,0,107.76,0,161.65,0.01
			c1.55,0,3.11,0.18,4.65,0.12c6.25-0.24,12.49-0.55,18.74-0.83c27.46,2.16,54.26,7.13,79.52,18.67
			c36.46,16.65,60.3,44.67,72.99,82.26c3.78,11.2,5.85,22.98,8.7,34.49c0.26,4.79,0.52,9.59,0.83,14.38c0.01,0.12,0.61,0.2,0.93,0.3
			c0.05,0.67,0.1,1.34,0.14,2.01c-1.55,2.39-2.45,4.68,0.99,6.29c0.01,1.02,0.02,2.04,0.02,3.07c-0.08,4.88-0.31,9.77-0.14,14.64
			c0.05,1.38,1.26,2.73,1.95,4.09c0.01,0.69,0.02,1.38,0.03,2.07c-2.82,2.99-2.78,10.66,0.08,13.49
			c0.05,40.52,0.13,81.04,0.14,121.56c0.01,14.48-0.12,28.96-0.18,43.45c-0.52,2.39-3.41,4.76-0.06,7.19
			c-0.02,0.72-0.05,1.44-0.07,2.16c-0.1,0.09-0.29,0.18-0.28,0.25c0.03,0.23,0.14,0.44,0.21,0.66
			c-1.39,29.03-5.43,57.55-16.46,84.71c-17.48,43.03-49.67,69.33-93.55,82.35c-20.9,6.2-42.31,9.27-64.05,10.23
			c-2.38,0.04-4.76,0.08-7.15,0.12c-3.8,0.05-7.61,0.09-11.41,0.14c-1.78-0.37-3.56-1.06-5.34-1.06
			c-52.82-0.06-105.64-0.06-158.47,0c-1.79,0-3.57,0.66-5.36,1.01c-38.17-0.27-75.32-5.43-109.59-23.61
			c-35.72-18.95-56.63-49.5-67.71-87.57c-0.24-0.81-0.16-1.71-0.23-2.57c-1.75-9.87-3.47-19.75-5.3-29.6
			c-0.13-0.71-1.07-1.26-1.64-1.89c-0.12-1.72-0.24-3.43-0.36-5.15c0.06-3.57,0.45-7.18,0.11-10.72c-0.46-4.77-1.49-9.49-2.27-14.23
			c-0.21-2.45-0.41-4.91-0.62-7.36c0.29-1.99,0.83-3.98,0.83-5.97c0.05-57.81,0.02-115.62,0.1-173.42c0-2.47,1.15-4.92,1.34-7.41
			c0.39-5.19,2.68-10.58-1.18-15.46c0.09-1.04,0.18-2.07,0.27-3.11c0.16-0.7,0.33-1.4,0.49-2.1c0.05-1.03,0.09-2.05,0.14-3.08
			c1.36-4,3.14-7.9,3.98-12.01c1.63-8,2.82-16.1,4.01-24.19C-1883.34,176.1-1883.46,173.27-1883.34,170.47z M-1855.38,231.66
			c-0.05,1.37-0.1,2.74-0.15,4.11c-0.02,1.04-0.03,2.09-0.05,3.13c-0.67,1.36-1.92,2.71-1.92,4.07c-0.1,60.57-0.09,121.14,0,181.71
			c0,1.36,1.24,2.72,1.9,4.08c0.05,2.07,0.1,4.14,0.16,6.2c-0.37,1.26-1.13,2.54-1.04,3.76c0.55,7.45,1.23,14.89,2.06,22.32
			c0.12,1.06,1.28,2,1.96,3c-0.02,0.7-0.04,1.41-0.07,2.11c-2.45,3.59,0.24,5.82,2.18,8.25c0.06,0.55,0.11,1.1,0.17,1.66
			c0,5.01-0.57,10.19,3.97,13.9c0.48,1.29,0.99,2.57,1.44,3.88c10.71,30.59,30.57,52.29,61.2,63.95
			c25.27,9.62,51.72,12.48,78.27,12.67c61.01,0.45,122.04-0.18,183.06-0.6c19.4-0.13,38.51-3.03,57.17-8.39
			c33.25-9.56,57.34-29.5,69.92-62.31c8.82-23.01,12.44-47.05,12.62-71.47c0.43-59.14,0.26-118.28,0.23-177.41
			c-0.01-23.2-2.08-46.17-8.35-68.63c-10.19-36.55-32.25-61.81-68.85-73.92c-23.07-7.63-46.84-10.49-70.84-10.71
			c-56.02-0.52-112.05-0.3-168.08-0.2c-24.03,0.04-47.9,1.95-71.24,8.22c-21.65,5.82-40.82,15.85-55.48,33.24
			c-16.51,19.58-23.43,43.11-27.22,67.8C-1853.66,214.57-1854.39,223.14-1855.38,231.66z M-1887.72,437.94
			c0.55-0.03,1.1-0.07,1.65-0.1c0.16-1.91,0.46-3.83,0.46-5.74c0.02-56.53,0.04-113.06-0.07-169.59c0-2.19-1.38-4.39-2.11-6.58
			c-0.65,2.28-1.86,4.56-1.86,6.84c-0.11,48.92-0.13,97.85-0.04,146.77c0.02,8.6,0.63,17.2,1.04,25.8
			C-1888.6,436.22-1888.04,437.07-1887.72,437.94z"/>
		<path class="st5" fill="current" d="M-1510.12,59.75c-6.25,0.28-12.49,0.59-18.74,0.83c-1.55,0.06-3.1-0.12-4.65-0.12
			c-53.88-0.01-107.76-0.01-161.65-0.01c-9.06,0-18.13,0.03-27.19-0.04c-1.14-0.01-2.27-0.52-3.4-0.79
			c10.35-0.4,20.7-1.14,31.04-1.15c54.47-0.09,108.94-0.05,163.41,0.08C-1524.23,58.55-1517.17,59.33-1510.12,59.75z"/>
		<path class="st6" fill="current" d="M-1892.64,223.34c3.86,4.88,1.58,10.27,1.18,15.46c-0.19,2.49-1.33,4.94-1.34,7.41
			c-0.08,57.81-0.05,115.62-0.1,173.42c0,1.99-0.54,3.98-0.83,5.97c-0.07-7.07-0.19-14.14-0.19-21.21
			c-0.01-52.79-0.04-105.58,0.07-158.36C-1893.83,238.47-1893.06,230.9-1892.64,223.34z"/>
		<path class="st7" fill="current" d="M-1706.1,608.29c1.79-0.35,3.57-1.01,5.36-1.01c52.82-0.05,105.64-0.06,158.47,0c1.78,0,3.56,0.69,5.34,1.06
			c-41.9,0.06-83.81,0.14-125.72,0.16C-1677.14,608.5-1691.62,608.36-1706.1,608.29z"/>
		<path class="st8" fill="current" d="M-1883.34,170.47c-0.12,2.8,0,5.63-0.4,8.38c-1.19,8.09-2.38,16.19-4.01,24.19
			c-0.84,4.1-2.62,8.01-3.98,12.01C-1888.94,200.19-1886.14,185.33-1883.34,170.47z"/>
		<path class="st6" fill="current" d="M-1890.58,463.05c0.56,0.62,1.51,1.18,1.64,1.89c1.83,9.85,3.55,19.73,5.3,29.6
			C-1885.95,484.05-1888.27,473.55-1890.58,463.05z"/>
		<path class="st6" fill="current" d="M-1893.1,432.97c0.78,4.74,1.81,9.46,2.27,14.23c0.34,3.53-0.05,7.14-0.11,10.72
			C-1891.66,449.59-1892.38,441.28-1893.1,432.97z"/>
		<path class="st9" fill="current" d="M-1344.18,239.95c-0.68-1.36-1.9-2.71-1.95-4.09c-0.17-4.87,0.06-9.76,0.14-14.64
			C-1345.38,227.46-1344.78,233.7-1344.18,239.95z"/>
		<path class="st9" fill="current" d="M-1344.07,255.5c-2.85-2.83-2.9-10.49-0.08-13.49C-1344.12,246.51-1344.09,251.01-1344.07,255.5z"/>
		<path class="st9" fill="current" d="M-1347.15,209.85c-0.32-0.1-0.93-0.18-0.93-0.3c-0.31-4.79-0.57-9.58-0.83-14.38
			C-1348.32,200.07-1347.73,204.96-1347.15,209.85z"/>
		<path class="st9" fill="current" d="M-1346.01,218.15c-3.45-1.6-2.54-3.89-0.99-6.29C-1346.67,213.96-1346.34,216.06-1346.01,218.15z"/>
		<path class="st9" fill="current" d="M-1344.17,427.7c-3.34-2.43-0.45-4.8,0.06-7.19C-1344.13,422.91-1344.15,425.31-1344.17,427.7z"/>
		<path class="st7" fill="current" d="M-1525.53,608.2c2.38-0.04,4.76-0.08,7.15-0.12C-1520.76,608.12-1523.14,608.16-1525.53,608.2z"/>
		<path class="st8" fill="current" d="M-1891.87,218.13c-0.17,0.7-0.33,1.4-0.49,2.1C-1892.2,219.53-1892.04,218.83-1891.87,218.13z"/>
		<path class="st9" fill="current" d="M-1344.31,430.78c-0.08-0.22-0.18-0.44-0.21-0.66c-0.01-0.07,0.18-0.17,0.28-0.25
			C-1344.12,430.18-1344.14,430.48-1344.31,430.78z"/>
		<path class="st10" fill="current" d="M-1887.72,437.94c-0.32-0.87-0.88-1.72-0.93-2.6c-0.41-8.6-1.03-17.2-1.04-25.8
			c-0.1-48.92-0.07-97.85,0.04-146.77c0.01-2.28,1.21-4.56,1.86-6.84c0.73,2.19,2.11,4.39,2.11,6.58
			c0.12,56.53,0.1,113.06,0.07,169.59c0,1.91-0.3,3.83-0.46,5.74C-1886.62,437.87-1887.17,437.91-1887.72,437.94z"/>
		<path class="st8" fill="current" d="M-1855.57,238.91c0.02,60.18,0.04,120.35,0.05,180.53c0,3.11-0.04,6.22-0.06,9.33
			c-0.66-1.36-1.9-2.72-1.9-4.08c-0.1-60.57-0.1-121.14,0-181.71C-1857.49,241.62-1856.24,240.27-1855.57,238.91z"/>
		<path class="st8" fill="current" d="M-1855.43,434.97c0.99,9.69,1.99,19.38,2.98,29.07c-0.68-1-1.84-1.94-1.96-3
			c-0.83-7.42-1.51-14.87-2.06-22.32C-1856.56,437.51-1855.8,436.23-1855.43,434.97z"/>
		<path class="st8" fill="current" d="M-1850.17,476.07c1.32,4.63,2.65,9.27,3.97,13.9C-1850.74,486.26-1850.17,481.08-1850.17,476.07z"/>
		<path class="st8" fill="current" d="M-1852.52,466.16c0.73,2.75,1.45,5.5,2.18,8.25C-1852.28,471.98-1854.97,469.75-1852.52,466.16z"/>
		<path class="st8" fill="current" d="M-1855.38,231.66c-0.05,1.37-0.1,2.74-0.15,4.11C-1855.48,234.41-1855.43,233.04-1855.38,231.66z"/>
		<path class="st0" fill="current" d="M-1759.8,437.08c-0.19-0.23-0.33-0.48-0.41-0.77c-1.54-6-5.01-10.53-10.38-13.61c0,0,0-0.01,0-0.01
			c-0.05-1.19,0.23-2.53-0.21-3.55c-4.35-9.95-8.82-19.84-13.26-29.76c-0.24-1.06-0.49-2.11-0.73-3.17
			c0.28-0.96,0.81-1.92,0.81-2.89c0-35.09-0.05-70.18-0.1-105.27c0.27-1.6,0.55-3.2,0.82-4.81c0.79-0.52,2.11-0.89,2.29-1.57
			c1.22-4.68,2.2-9.42,3.26-14.13c9.02-20.8,24.01-35.72,43.95-46.37c24.52-13.1,48.35-27.51,73.04-40.27
			c28.49-14.72,57.56-14.17,85.83,1.06c25.99,14,51.76,28.42,77.35,43.13c26.18,15.05,41.88,38.24,44.24,67.97
			c2.3,29.03,0.74,58.36,1.27,87.55c0.37,20.65-5.96,39.02-17.49,55.82c-9.12,13.29-21.61,22.47-35.68,30.05
			c-24.46,13.18-48.32,27.52-72.99,40.27c-26.74,13.82-54.5,13.63-81.19,0.11c-24.62-12.48-48.36-26.67-72.49-40.12
			c-0.45-0.25-0.82-0.63-1.22-0.95c-3.06-5.36-8.44-6.78-13.85-8.15c-0.24-0.03-0.45-0.12-0.63-0.27c-0.76-0.61-1.52-1.21-2.27-1.82
			c0,0,0.03-0.02,0.03-0.02c-0.87-3.26-2.85-5.17-6.36-5.22c-0.3-0.28-0.6-0.56-0.9-0.84c-0.59-0.49-1.17-0.98-1.76-1.47
			c0,0-0.12-0.12-0.12-0.12C-1759.24,437.64-1759.52,437.36-1759.8,437.08z M-1637.13,354.82c-1.39-1.19-2.64-2.62-4.19-3.52
			c-26.89-15.57-53.82-31.07-80.74-46.58c-8.14-4.69-16.3-9.36-24.99-14.34c-0.21,1.76-0.39,2.57-0.39,3.38
			c-0.01,27.65-0.73,55.33,0.27,82.94c0.63,17.41,9.03,31.72,24.34,41.01c8.54,5.19,17.44,9.8,26.17,14.67
			c17.94,10,35.87,20.04,53.87,29.92c1.44,0.79,3.7,3.96,5.12-0.3c0.58-0.96,1.57-1.89,1.64-2.88c0.12-1.66-0.52-3.37-0.52-5.06
			c-0.04-31.16-0.02-62.31-0.05-93.47C-1636.6,358.66-1636.95,356.74-1637.13,354.82z M-1490.25,303.23c0-1.04,0-2.08,0-3.12
			c3.28-2.75,3.26-5.51,0.03-8.28c-1.63,0.26-3.51,0.07-4.85,0.83c-33.83,19.42-67.59,38.98-101.43,58.37
			c-2.84,1.63-3.63,3.47-3.62,6.58c0.1,33.52,0.06,67.05,0.06,100.57c0,1.82,0,3.63,0,6.32c2.3-0.99,3.71-1.45,5-2.16
			c22.35-12.37,44.73-24.71,67-37.21c6.75-3.79,13.76-7.42,19.71-12.28c9.97-8.13,14.84-19.6,17.87-31.87
			c0.76-1.26,2.16-2.53,2.17-3.79c0.13-23.3,0.13-46.61,0.01-69.91C-1488.3,305.92-1489.57,304.58-1490.25,303.23z M-1731.46,254.83
			c2.22,1.59,2.99,2.24,3.86,2.74c34.63,20.08,69.31,40.08,103.86,60.29c3.48,2.04,5.98,2.02,9.42,0.01
			c32.05-18.71,64.22-37.23,96.33-55.84c3.52-2.04,6.93-4.25,11.17-6.86c-3.04-2.21-5.2-4.14-7.68-5.52
			c-26.79-15.01-53.44-30.29-80.52-44.75c-14.99-8-31.25-8.48-46.33-0.63c-24.79,12.9-48.98,26.96-73.38,40.6
			C-1720.08,247.84-1725.26,251.12-1731.46,254.83z"/>
		<path class="st11" fill="current" d="M-1784.07,278.07c0.04,35.09,0.09,70.18,0.1,105.27c0,0.96-0.53,1.92-0.81,2.89
			c-0.36-2.89-1.04-5.78-1.05-8.67c-0.08-28.61-0.13-57.22,0.03-85.83C-1785.77,287.16-1784.67,282.62-1784.07,278.07z"/>
		<path class="st11" fill="current" d="M-1784.05,389.39c4.44,9.91,8.91,19.81,13.26,29.76c0.45,1.02,0.16,2.36,0.21,3.55
			C-1778.24,412.88-1782.65,401.74-1784.05,389.39z"/>
		<path class="st11" fill="current" d="M-1770.58,422.7c5.37,3.08,8.84,7.61,10.38,13.61C-1763.67,431.78-1767.13,427.24-1770.58,422.7z"/>
		<path class="st11" fill="current" d="M-1777.71,257.56c-1.06,4.72-2.04,9.46-3.26,14.13c-0.18,0.68-1.5,1.05-2.29,1.57
			C-1781.4,268.03-1779.55,262.79-1777.71,257.56z"/>
		<path class="st11" fill="current" d="M-1746.95,447.67c5.41,1.37,10.79,2.79,13.85,8.15C-1737.71,453.11-1742.33,450.39-1746.95,447.67z"/>
		<path class="st11" fill="current" d="M-1756.18,440.34c3.51,0.05,5.48,1.97,6.36,5.22C-1751.94,443.83-1754.06,442.09-1756.18,440.34z"/>
		<path class="st11" fill="current" d="M-1749.85,445.59c0.76,0.61,1.51,1.21,2.27,1.82C-1748.33,446.8-1749.09,446.19-1749.85,445.59z"/>
		<path class="st11" fill="current" d="M-1758.84,438.03c0.59,0.49,1.17,0.98,1.76,1.47C-1757.67,439.02-1758.26,438.52-1758.84,438.03z"/>
		<path class="st11" fill="current" d="M-1759.8,437.08c0.28,0.28,0.56,0.56,0.84,0.83C-1759.24,437.64-1759.52,437.36-1759.8,437.08z"/>
		<path class="st4" d="M-1490.48,380.98c0.08-25.91,0.15-51.83,0.23-77.74c0.68,1.35,1.95,2.69,1.95,4.04
			c0.12,23.3,0.12,46.61-0.01,69.91C-1488.32,378.45-1489.72,379.71-1490.48,380.98z"/>
		<path class="st7" fill="current" d="M-1637.67,461.99c-0.04-34.73-0.09-69.47-0.09-104.2c0-0.99,0.42-1.98,0.64-2.97
			c0.18,1.92,0.52,3.84,0.52,5.76c0.03,31.16,0.01,62.31,0.05,93.47c0,1.69,0.65,3.4,0.52,5.06
			C-1636.1,460.1-1637.09,461.03-1637.67,461.99z"/>
		<path class="st4" fill="current" d="M-1490.25,300.11c0.01-2.76,0.02-5.52,0.03-8.28C-1486.98,294.6-1486.96,297.36-1490.25,300.11z"/>
	</g>
</g>
<g>
	<g>
		<path class="st12" fill="current" d="M-1362.9,972.86c0,40.45,0.4,71.04-0.19,101.6c-0.26,13.48-2.45,26.94-3.92,40.39
			c-2.48,22.63-8.81,44.1-19.52,64.24c-16.3,30.64-41.28,51.24-73.48,63.34c-26.23,9.85-53.51,14.62-81.46,14.84
			c-61.13,0.48-122.28,1.03-183.41,0.6c-33.94-0.24-67.33-5.01-98.83-18.98c-27.91-12.38-49.42-31.66-64.22-58.41
			c-12.04-21.76-18.76-45.24-21.2-69.78c-1.93-19.35-2.97-38.86-3.11-58.31c-0.4-55.28-1.04-110.58,0.2-165.83
			c0.83-36.89,7.22-73.09,26.78-105.56c14.9-24.73,35.82-42.57,62.17-54.21c22.98-10.15,47.17-15.49,72.08-16.88
			c23.76-1.32,47.58-1.72,71.38-1.89c40.25-0.29,80.51-0.35,120.75,0.03c21.88,0.21,43.76,1.35,65.29,5.9
			c18.8,3.97,36.95,9.62,53.89,19.03c20.71,11.51,37.25,27.27,49.44,47.45c14.23,23.56,20.94,49.52,24.5,76.66
			C-1360.27,898.9-1364.31,940.87-1362.9,972.86z M-1465.74,1203.09c2.26-0.98,3.85-1.56,5.34-2.34
			c20.06-10.42,34.44-26.19,43.68-46.71c10.59-23.52,14.97-48.62,15.15-74.01c0.47-67.7-0.12-135.41-0.73-203.11
			c-0.16-18.16-4.04-35.92-9.8-53.18c-10.48-31.44-31.05-53.05-62.26-64.75c-25.12-9.42-51.34-12.35-77.71-12.53
			c-60.28-0.42-120.57,0.19-180.85,0.56c-19.57,0.12-38.8,3.1-57.62,8.49c-33.59,9.62-57.9,29.68-70.49,62.93
			c-9.48,25.02-12.79,51.09-12.91,77.59c-0.24,55.64-0.03,111.27-0.12,166.91c-0.03,19.54,1.37,38.94,5.29,58.08
			c5.11,24.95,14.17,47.98,33.62,65.62c7.55,6.85,15.85,12.54,25.72,16.44c0.82-2.17,1.55-3.9,2.12-5.68
			c6.02-18.56,16.25-34.67,29.4-48.86c19.13-20.64,42.42-35.09,68.73-44.83c32.87-12.16,66.69-15.33,101.3-10.53
			c23.27,3.23,45.32,10.27,66.06,21.46c22.2,11.98,41.19,27.53,56.08,48.03C-1476.94,1174.81-1470.75,1188.19-1465.74,1203.09z
			 M-1772.33,1214.35c1.44,0.47,2.68,1.12,3.98,1.25c14.21,1.43,28.44,4.04,42.64,3.93c67.8-0.5,135.63,2.56,203.38-1.83
			c6.52-0.42,12.98-1.87,19.78-2.88c-0.55-1.98-0.74-2.81-1.02-3.61c-9.38-27.06-27.69-46.65-52.06-60.64
			c-34.4-19.74-71.56-25.05-110.41-18.79c-33.87,5.45-63.42,19.56-86.27,45.84C-1761.54,1188.23-1768.64,1200.2-1772.33,1214.35z"/>
		<path class="st12" fill="current" d="M-1526.76,946.75c-0.82,61.54-48.17,110.5-110.75,111.09c-60.43,0.57-111-50.16-110.91-110.57
			c0.09-63.19,51.47-111.75,111.62-111.21C-1576.26,836.6-1526.83,885.79-1526.76,946.75z M-1637.3,874.53
			c-40.35-0.03-72.98,31.95-72.73,71.86c0.25,40.17,30.51,73.07,72.92,72.99c40.98-0.08,71.73-32.96,71.96-72.39
			C-1564.91,906.8-1597.18,874.57-1637.3,874.53z"/>
	</g>
</g>
<g>
	<g>
		<path class="st0" fill="current" d="M-1445.79,1623.36c-11.62,0-21.79,0.3-31.95-0.06c-28.06-0.98-50.09-12.96-64.76-37.15
			c-15.58-25.69-10.56-61.69,10.46-83.31c15.26-15.69,33.52-23,55.2-22.63c10.14,0.17,20.29,0.03,30.38,0.03
			c2.14-39.5-3.52-75.84-35.41-102.85c-15.71-13.3-34.4-20.15-54.71-22.47c-7.86-0.9-15.82-1.21-23.73-1.22
			c-76.88-0.05-153.77-0.35-230.65,0.24c-27.35,0.21-52.27,8.9-72.42,28.39c-17.22,16.66-26.89,37.48-28.76,60.95
			c-1.82,22.83-1.08,45.87-1.4,68.82c-0.18,12.68-8.46,20.64-21.06,20.12c-9.1-0.38-17.16-8.24-17.22-17.45
			c-0.15-21.42-0.99-42.9,0.23-64.26c2.22-39.05,16.34-73.25,45.97-99.77c20.88-18.69,45.74-29.51,73.42-33.09
			c13.46-1.74,27.15-2.22,40.74-2.25c75.16-0.18,150.32-0.67,225.46,0.28c34.57,0.43,66.15,11.96,92.27,35.39
			c25.71,23.06,39.91,52.55,44.2,86.57c1.76,13.97,1.57,28.21,1.98,42.33c0.09,3.25,0.77,5.36,3.68,7.16
			c14.73,9.13,21.71,22.56,21.62,39.83c-0.08,16.93-0.01,33.86-0.03,50.79c-0.02,16.48-7.03,29.28-20.79,38.18
			c-3.35,2.16-4.54,4.41-4.46,8.32c0.47,24.41-0.6,48.69-9.12,71.93c-18.65,50.88-55.34,80.29-108.23,89.84
			c-25.12,4.54-50.59,2.61-75.93,2.88c-6.2,0.07-12.46,0.15-18.6-0.55c-12.44-1.4-18.89-9.04-18.12-20.69
			c0.67-10.29,8.96-17.48,20.61-17.56c17.28-0.11,34.56-0.16,51.83,0c16.78,0.16,33.51-0.1,49.62-5.55
			c39.14-13.24,61.21-41.07,67.57-81.3C-1445.89,1650.46-1446.45,1637.22-1445.79,1623.36z M-1420.6,1552.19
			c0-8.46,0.05-16.92-0.02-25.39c-0.05-5.88-2.3-8.17-8.13-8.19c-17.44-0.05-34.88-0.14-52.32,0.03c-9.44,0.09-17.43,3.86-23.66,11
			c-8.42,9.65-10.99,20.83-6.54,32.75c4.49,12.04,13.42,20.63,26.45,21.5c19.24,1.28,38.61,0.95,57.92,0.93
			c3.9-0.01,6.45-2.67,6.36-7.25C-1420.72,1569.12-1420.6,1560.65-1420.6,1552.19z"/>
		<path class="st0" fill="current" d="M-1669.67,1666.94c0,18.31-0.37,36.64,0.07,54.94c0.93,38.64-15.99,67.45-48.12,87.6
			c-24.31,15.24-51.14,19.97-79.48,16.21c-25.06-3.32-46.99-13.52-65.14-31.16c-16.1-15.65-27.04-34.49-27.89-57.24
			c-1.15-30.35-0.74-60.77-0.97-91.15c-0.1-12.96-0.2-25.92-0.18-38.87c0.05-26.96,10.09-49.58,29.52-68.22
			c25.69-24.64,56.88-34.18,91.53-31.49c36.06,2.8,65.84,18.29,86.13,49.28c9.68,14.78,14.38,31.26,14.49,48.94
			C-1669.57,1626.17-1669.67,1646.55-1669.67,1666.94z M-1780.81,1661.83c16.98,0.17,32.78-3.87,47.3-12.76
			c27.08-16.57,33.55-50.23,14.07-75.14c-13.13-16.8-30.92-25.41-51.94-27.53c-25.99-2.63-49,3.74-67.04,23.5
			c-18.99,20.8-21.1,53.87,4.24,74.22C-1818.51,1656.71-1800.44,1661.48-1780.81,1661.83z M-1852.63,1679.03
			c1.38,16.4,9.24,28.45,21.57,37.64c16.94,12.63,36.42,16.9,57.18,15.48c21-1.44,39.79-8.28,53.94-24.73
			c6.84-7.95,11.02-17.15,11.54-28.36C-1756.6,1707.33-1804.35,1707.47-1852.63,1679.03z M-1715.64,1753.69
			c-21,11.51-42.24,16.93-64.92,16.95c-22.65,0.02-43.8-5.66-64.12-16.61c6.6,15.95,29.36,33.85,62.5,34.84
			C-1754.94,1789.68-1726.71,1776.47-1715.64,1753.69z"/>
	</g>
</g>
<g>
	<g>
		<path class="st0" fill="current" d="M-1785.36,1941.15c8.81,0,17.62-0.11,26.43,0.03c9.52,0.15,17.39-3.21,24.06-10.03
			c11.47-11.73,23.13-23.28,34.75-34.86c23.31-23.23,62.65-23.29,85.94-0.13c12.98,12.91,25.79,26,38.89,38.8
			c4.9,4.79,11.38,6.14,18.07,6.16c17.45,0.06,34.9-0.01,52.34,0.05c30.4,0.11,56.33,22.73,58.82,53.01
			c1.57,19.04,0.91,38.29,0.88,57.44c-0.01,9.28,2.66,16.74,9.61,23.37c13.48,12.87,27,25.83,39.17,39.9
			c20.21,23.36,18.46,57.87-3.24,80c-12.08,12.32-24.66,24.13-36.93,36.27c-5.26,5.2-8.68,11.19-8.57,19.05
			c0.23,17.44,0.11,34.89,0.02,52.34c-0.11,23.16-9.58,41.28-29.38,53.68c-9.61,6.02-20.25,8.67-31.46,8.79
			c-17.27,0.19-34.55,0.16-51.82,0c-8.09-0.07-14.71,2.73-20.36,8.45c-12.26,12.41-24.59,24.76-37,37.02
			c-19.24,18.98-48.21,22.99-71.56,9.63c-5.02-2.87-9.63-6.74-13.8-10.79c-12.52-12.14-24.74-24.58-37.06-36.92
			c-4.88-4.89-10.79-7.3-17.64-7.32c-17.27-0.05-34.55,0.11-51.82-0.04c-23.56-0.2-41.88-10.06-54.27-30.3
			c-4.67-7.63-7.38-16.03-7.5-24.97c-0.25-17.79-0.28-35.59-0.12-53.38c0.1-10.59-3.17-19.16-11.1-26.69
			c-13.5-12.82-26.77-25.99-39.09-39.93c-18.3-20.72-17.23-56.04,1.75-76.01c12.13-12.76,24.52-25.32,37.34-37.38
			c7.95-7.48,11.12-16.25,11.07-26.75c-0.07-16.58-0.07-33.17,0-49.75c0.13-31.99,26.17-58.26,58.2-58.72
			C-1802.29,1941.05-1793.82,1941.16-1785.36,1941.15z M-1535.01,2326.24c0.01,0.18,0.01,0.36,0.02,0.54c8.98,0,17.96,0.02,26.94,0
			c15.73-0.04,24.61-8.96,24.64-24.79c0.03-17.61-0.11-35.23,0.07-52.84c0.16-16.08,6.21-30.01,17.19-41.52
			c12.5-13.1,25.48-25.76,38.37-38.48c9.26-9.14,9.48-22.58,0.26-31.82c-12.2-12.22-24.57-24.28-36.6-36.66
			c-12.38-12.74-19.41-27.85-19.29-45.96c0.11-16.92-0.08-33.85,0.06-50.77c0.13-16.25-10.85-25.04-24.28-24.61
			c-16.91,0.54-33.85,0.28-50.77,0.07c-15.12-0.19-29.27-4.35-40.53-14.55c-14.44-13.09-28.01-27.14-41.88-40.85
			c-10.09-9.97-22.9-10.06-32.94-0.04c-12.1,12.08-24.1,24.26-36.29,36.25c-12.9,12.68-28.59,18.99-46.61,19.2
			c-16.92,0.2-33.87,0.53-50.77-0.11c-13.28-0.51-24.01,9.76-23.45,23.58c0.67,16.38,0.29,32.81,0.13,49.21
			c-0.18,19.31-6.73,35.97-20.72,49.65c-12.96,12.67-25.66,25.63-38.38,38.54c-1.52,1.54-3.3,3.54-3.54,5.51
			c-0.98,8.02-0.75,16,5.47,22.27c11.64,11.74,23.18,23.59,35.14,35c13.51,12.89,21.34,28.17,21.45,47.03
			c0.09,17.1,0.08,34.19,0.04,51.29c-0.03,14.93,8.03,25.75,25.62,25.46c17.44-0.29,34.89-0.22,52.33-0.01
			c17.7,0.21,32.22,7.83,44.56,20.07c12.35,12.25,24.47,24.74,37.01,36.78c8.31,7.98,21.76,7.35,29.95-0.78
			c12.98-12.88,25.9-25.81,38.93-38.65c8.72-8.59,19.24-14.5,31.23-16.11C-1559.55,2326.51-1547.22,2326.79-1535.01,2326.24z"/>
		<path class="st0" fill="current" d="M-1752.83,2228.59c-0.76-6.79,4.19-11.39,8.82-16.03c49.81-49.79,99.66-99.55,149.53-149.3
			c10.17-10.14,26.36-7.25,31.46,5.83c2.56,6.57,2.36,13.53-2.81,18.91c-12.77,13.32-25.83,26.38-38.87,39.45
			c-37.43,37.5-74.93,74.94-112.35,112.44c-5.67,5.68-11.53,10.29-20.39,8.42C-1747.07,2246.29-1752.88,2239.35-1752.83,2228.59z"/>
		<path class="st0" fill="current" d="M-1733.15,2101.88c-14.19,0.13-26.73-11.92-26.56-25.52c0.17-14.16,12.14-25.97,26.22-25.89
			c13.14,0.08,24.94,11.97,25.16,25.37C-1708.11,2089.43-1719.86,2101.76-1733.15,2101.88z"/>
		<path class="st0" fill="current" d="M-1555.57,2229.42c-0.03,14.69-11.08,26.03-25.2,25.87c-14.02-0.16-25.76-11.96-25.72-25.85
			c0.05-13.72,12.42-25.74,26.17-25.42C-1566.51,2204.33-1555.54,2215.59-1555.57,2229.42z"/>
	</g>
</g>
<g>
	<g>
		<path class="st0" fill="current" d="M277.36,13.83c45.08,0,90.18-0.85,135.24,0.25c41.53,1.01,77.92,15.57,105.75,47.67
			c17.52,20.2,27.59,44.06,31.35,70.41c1.55,10.87,2.13,21.97,2.16,32.96c0.17,53.37,1.59,106.8-0.48,160.1
			c-2.1,53.95-26.37,96.1-76.12,120.95c-17.11,8.55-35.5,13.7-54.65,14.14c-35.72,0.81-71.46,0.68-107.19,1.15
			c-3.04,0.04-6.51,1.01-9.03,2.68c-34.69,22.94-69.2,46.16-103.87,69.12c-14.71,9.74-30.43,11.04-46.13,2.83
			c-16.09-8.41-23.81-22.44-24.23-40.44c-0.24-10.19-0.25-20.39,0.06-30.57c0.13-4.13-1.42-5.18-5.22-5.69
			c-40.44-5.38-73.66-23.31-97.24-57.22c-14.28-20.54-21.9-43.63-24.16-68.48c-0.62-6.86-0.98-13.76-0.99-20.64
			c-0.08-51.82-0.17-103.64,0-155.45c0.1-31.66,8.2-61.06,26.75-87.07C46.13,46.99,68.64,31.15,96,22.03
			c18.51-6.17,37.56-8.39,57.01-8.34c41.45,0.11,82.91,0.03,124.36,0.03C277.36,13.76,277.36,13.8,277.36,13.83z M277.2,52.06
			c0-0.03,0-0.06,0-0.09c-42.32,0-84.63-0.12-126.95,0.1c-8.75,0.05-17.6,0.7-26.21,2.21c-26.58,4.69-48.57,17.35-64.22,39.7
			C47.2,112,41.12,132.41,40.99,154.26c-0.31,51.47-0.23,102.94-0.03,154.41c0.04,10.13,0.37,20.42,2.18,30.35
			c6.59,36.1,26.44,61.92,60.96,75.74c14.96,5.99,30.74,7.25,46.59,8.2c10.35,0.62,17.7,8.63,17.73,19.14
			c0.05,17.1,0.06,34.2-0.02,51.3c-0.02,3.45,0.28,6.51,3.66,8.47c3.59,2.08,6.18,0.07,8.95-1.8c9.43-6.38,18.88-12.73,28.35-19.04
			c24.24-16.17,48.58-32.17,72.69-48.53c9.2-6.24,18.38-10.18,30.1-9.85c28.99,0.81,58.03,0.53,87.04,0.13
			c11.15-0.15,22.48-0.79,33.38-2.97c34.72-6.97,59.67-26.53,73.22-59.72c6.84-16.74,8.21-34.26,8.1-52.18
			c-0.29-48.71,0.09-97.42-0.25-146.12c-0.07-10.78-1.04-21.76-3.3-32.27c-5.03-23.39-17.04-42.65-36.54-57.09
			c-18.3-13.56-39.05-19.92-61.38-20.19C367.36,51.68,322.28,52.06,277.2,52.06z"/>
		<path class="st0" fill="current" d="M215.97,186.05c0.24-28.53,23.53-54.27,51.5-58.51c27.37-4.16,52.83,9.58,64.4,32.39
			c13.88,27.36,7.76,56.56-19.4,75.49c-1.56,1.09-3.1,2.2-4.73,3.16c-8.83,5.19-11.98,13.08-11.76,23.05
			c0.2,9.43-7.25,17.5-16.19,18.39c-9.86,0.98-19.58-5.25-20.95-14.49c-2.44-16.36,0.37-31.85,11.87-44.35
			c6.11-6.64,13.32-12.47,20.72-17.7c9.75-6.9,10.81-15.61,6.89-24.88c-4.07-9.63-15.2-15.21-25.07-13.15
			c-11.37,2.37-18.03,10.07-19.01,21.94c-1.29,15.62-14.07,24.26-27.39,18.21C218.49,201.82,215.31,194.74,215.97,186.05z"/>
		<path class="st0" fill="current" d="M277.35,305.84c10.27,0,18.93,8.11,19.09,17.88c0.19,11.45-7.89,19.76-19.21,19.78
			c-11.08,0.02-18.83-7.74-18.83-18.83C258.41,313.67,266.29,305.84,277.35,305.84z"/>
	</g>
</g>
</svg>
